<svg xmlns:xlink="http://www.w3.org/1999/xlink" xmlns="http://www.w3.org/2000/svg" ng-style="$ctrl.style" style="width: 60px; height: 50px;" width="100"  height="85" ><defs><symbol id="fs-img-flowmulti" viewBox="0 0 100 85">
    <g stroke="none" stroke-width="1" fill-rule="evenodd">
        <ellipse fill="#E1E1E1" cx="50.5" cy="74.5" rx="49.5" ry="4.5"></ellipse>
        <path d="M9.78746511,66.078124 C9.7874651,51.6578755 8.56538652,20.9130856 9.37142861,18.0797523 C10.1774707,15.246419 11.8295624,13.8002929 14.5185547,13.300293 C17.207547,12.800293 84.980472,11.9805159 88.2739258,12.6914062 C92.1346403,13.5247396 92.392041,15.5538734 92.8120117,19.637207 C93.2319824,23.7205407 92.6285714,66.3333333 92.6285714,66.3333333 L9.78746511,66.078124 Z" fill="#333333"></path>
        <path d="M12.7874651,70.078124 L89.6288868,70.2898361 C89.6314728,70.1114968 89.6363289,64.7700339 89.6431306,64.2812277 C89.6544712,63.4662451 89.6671089,62.5354722 89.6807195,61.5046909 C89.7196094,58.5594156 89.7585,55.4034166 89.7947967,52.1629939 C89.8330502,48.7478799 89.8661764,45.4354035 89.8926645,42.2992065 C89.9977426,29.8579209 89.9851737,21.4747131 89.8277541,19.9441378 C89.4273731,16.0512731 89.4021239,16.0040182 87.6409548,15.6238707 C85.0634882,15.0675258 17.7717477,15.7468053 15.066984,16.2497379 C13.4553786,16.549405 12.7392991,17.2050707 12.2569352,18.9006369 C11.9762441,19.8872993 12.0439145,27.223147 12.4411243,44.4886041 C12.4502025,44.8832522 12.4502025,44.8832522 12.4592741,45.2780363 C12.6492294,53.5479696 12.7762366,62.3214877 12.7762366,62.3214877 L12.7874651,70.078124 Z" fill="#FFFFFF"></path>
        <path d="M14.4742857,19.3398438 C15.0620276,17.9751095 33.1221151,18.3427412 50.8989258,18.3320313 C68.6412755,18.321342 86.1001193,17.930534 86.9885714,18.4 C87.8811622,18.8716529 88.1015561,29.7978322 87.9526367,40.3046875 C87.8048104,50.7344216 87.5630243,60.8548243 87.5630243,60.8548243 C87.5500602,61.412319 87.090907,61.8634046 86.5322353,61.8623422 L15.3182084,61.7269156 C14.7618834,61.7258576 14.2998261,61.2789526 14.2863955,60.7225237 C14.2863955,60.7225237 13.2999414,22.0666666 14.4742857,19.3398438 L14.4742857,19.3398438 Z" fill="#333333"></path>
        <path d="M33.2882561,59.8595489 C23.5025488,59.7938629 16.2764324,59.7349741 16.2764324,59.7349741 C16.2764324,59.7349741 16.2411932,58.8203653 16.2253187,58.1163365 C16.1799534,56.1044129 16.1345849,53.9049653 16.0922415,51.5898448 C16.0186646,47.5670312 15.9621797,43.6294209 15.9295429,39.9378221 C15.8820807,34.5693085 15.887793,30.0216912 15.957413,26.5613483 C16.0304544,22.9309529 16.1244214,20.8187192 16.1244214,20.8187192 C16.1244214,20.8187192 16.7142288,20.7301033 17.100254,20.6892081 C18.4137435,20.550058 20.325004,20.4514791 22.8481934,20.3884199 C26.9111384,20.2868792 30.8703624,20.2786988 41.4078681,20.3134673 C45.5402532,20.3271021 47.6122063,20.3321505 50.0478442,20.3322635 C50.4740032,20.3322394 50.4740032,20.3322394 50.9001307,20.3320309 C55.5295352,20.3292418 59.9245407,20.3042925 66.6776316,20.2507459 C76.51782,20.1727212 77.8396232,20.1640616 80.7613405,20.1702244 C82.6387967,20.1741846 85.5199868,20.2443984 85.5199868,20.2443984 C85.5199868,20.2443984 85.4856776,20.2131801 85.5497248,20.7718514 C85.6822078,21.9274755 85.7876081,23.5862079 85.8624707,25.6612512 C86.0025007,29.5426039 86.0309473,34.7653903 85.9528376,40.2763432 C85.9144042,42.9879711 85.8675607,45.8260403 85.8141466,48.7366775 C85.759331,51.7236902 85.7005977,54.6273428 85.6418658,57.333034 C85.6213113,58.2799503 85.6022263,59.1344387 85.5851006,59.88218 C85.5822874,60.0050087 79.583424,60.0428337 71.1164732,60.0350369 C71.2265221,56.4268218 71.3163896,52.738948 71.3799895,49.0284106 C71.3838448,48.803487 71.4044212,47.6266515 71.4106716,47.2633944 C71.4247637,46.4443997 71.4368046,45.7155584 71.4483156,44.9736107 C71.486631,42.5039738 71.5133836,40.2406234 71.5264089,38.0994834 C71.5716981,30.6546543 71.4638719,26.4541802 71.0415237,25.502186 C70.5006218,24.2829662 68.5081158,23.9240301 64.755989,23.7685456 C63.2162268,23.7047393 61.5958203,23.7017113 60.0350392,23.734602 C59.7270921,23.7410914 59.0220876,23.7601341 59.2634411,23.7541156 C57.4484754,23.7993748 55.4157865,23.8239937 53.2040279,23.830097 C49.7163733,23.8397213 45.9767597,23.8036642 42.2624713,23.7376312 C41.1060334,23.7170719 40.0375112,23.6950453 39.082757,23.6730219 C38.7487227,23.6653167 38.4528142,23.6581636 38.1982619,23.6517463 C37.9407608,23.6451526 37.9407608,23.6451526 37.8873862,23.643706 C37.5904297,23.6583562 37.5904297,23.6583562 37.3926383,23.6708055 C34.9470659,23.8270841 34.10117,24.4315144 33.9699489,26.7560635 L33.9685089,26.7951333 C33.9500948,27.8599491 33.9023127,29.9537282 33.8206319,33.3212534 C33.7709297,35.3703708 33.5500488,44.3209609 33.5675109,43.6107269 C33.5567707,44.047705 33.5567707,44.047705 33.5460392,44.4849766 C33.5029584,46.2410909 33.4655739,47.7779892 33.4312543,49.2066823 C33.3791892,51.3741054 33.3401478,53.9285601 33.3127076,56.7911437 C33.302988,57.8051017 33.2948881,58.8307919 33.2882561,59.8595489 L33.2882561,59.8595489 Z" fill="#E7F0D0"></path>
        <path d="M8.39355469,64.012207 C11.1631975,64.012207 43.291351,64.0003653 43.291351,64.0003653 C43.8405227,64.0001636 44.2857143,64.4403458 44.2857143,64.9929682 L44.2857143,65.6736984 C44.2857143,66.2220996 44.7295174,66.6798312 45.2757637,66.6958374 C45.2757637,66.6958374 50.0493904,66.8394825 52.2841797,66.8764648 C54.5233667,66.9135199 59.3912226,66.9294266 59.3912226,66.9294266 C59.948355,66.9315842 60.4,66.4929876 60.4,65.9403651 L60.4,65.2596349 C60.4,64.7112337 60.8440585,64.2631089 61.3926303,64.2586162 C61.3926303,64.2586162 90.0776367,64.0341797 94.0535499,63.7932943 C98.0294631,63.5524089 97.5049847,66.2665684 97.4960937,66.4960938 C97.456696,67.513171 97.5272887,70.6702024 97.5272887,70.6702024 C97.5658681,72.8773887 95.8053157,74.6828708 93.5979925,74.7028324 L51.1628534,75.0865885 L8.40980218,74.7026505 C6.19682755,74.6827772 4.40285715,72.8847701 4.40285715,70.6681453 C4.40285715,70.6681453 4.40285715,67.6011649 4.40285715,66.0032552 C4.40285715,63.8365885 6.79738975,64.0122071 8.39355469,64.012207 Z" fill="#333333"></path>
        <path d="M7.40285715,70.6681453 C7.40285715,71.2331798 7.86479641,71.6976352 8.43674219,71.7027715 L51.1357244,72.0867112 L93.5708635,71.7029551 C94.1125141,71.6980567 94.5371801,71.2623249 94.5280384,70.7372671 C94.5266229,70.6739238 94.7493966,66.7566366 94.2349758,66.7878034 C92.5329053,66.8909253 86.7406447,66.9934346 77.9859036,67.0963293 C74.3609132,67.1389339 70.4776183,67.1784716 66.5944108,67.21394 C65.2353569,67.2263533 64.0654297,67.2397461 63.1934924,67.2115266 C62.6585216,68.8038241 61.1455986,69.9362433 59.3814196,69.9294106 C59.316503,69.9291984 52.9623829,69.8880988 52.2345411,69.8760542 C51.5144306,69.8641374 45.2353647,69.6959796 45.1878949,69.6945503 C43.0180265,69.6309684 41.5702849,67.0009968 41.5702849,67.0009968 C41.5702849,67.0009968 39.9335785,67.0015939 38.2291178,67.0022154 C34.4099793,67.0036031 8.20594052,67.0117308 8.02728137,67.0104197 C7.61128637,67.0074082 7.35583496,67.0057373 7.35583496,67.0057373 C7.35583496,67.0057373 7.40285715,70.5525455 7.40285715,70.6681453 Z" fill="#FFFFFF"></path>
        <path d="M69.1156205,60.0324379 C69.2262203,56.4141859 69.3164998,52.7153846 69.3802833,48.9941349 C69.3841461,48.7687725 69.404724,47.5918483 69.4109676,47.2289865 C69.4250417,46.4110375 69.4370647,45.6832818 69.4485563,44.9425853 C69.4867818,42.4787418 69.5134638,40.2213685 69.5264459,38.087317 C69.5666668,31.4756375 69.4477079,26.8414775 69.2133591,26.3132437 C69.2615985,26.4219776 69.2396289,26.4055563 69.1198467,26.3562771 C68.8820664,26.2584529 68.5267301,26.1648527 68.0735361,26.0832129 C67.2116834,25.9279562 66.0514054,25.8239428 64.673182,25.7668306 C63.1817402,25.7050267 61.5998401,25.7020706 60.0771763,25.7341581 C59.7762714,25.7404991 59.0771934,25.7593817 59.313299,25.753494 C57.4822439,25.7991544 55.435145,25.8239479 53.2095469,25.8300894 C49.7065348,25.839756 45.9538484,25.803573 42.2269207,25.7373152 C41.0668226,25.7166908 39.9947952,25.694592 39.0366351,25.67249 C38.7011494,25.6647514 38.4038151,25.6575638 38.1478581,25.6511111 C37.8883938,25.6444672 37.8883938,25.6444672 37.9240635,25.641304 C37.7142549,25.6545202 37.7142549,25.6545202 37.5201835,25.6667344 C35.9752262,25.7654613 36.031315,25.7253834 35.9667699,26.8687843 L35.9682099,26.8297145 C35.9496833,27.9010378 35.9018512,29.9970042 35.8200439,33.36975 C35.7703296,35.419363 35.549434,44.3705504 35.5669067,43.6598849 C35.5561678,44.0968122 35.5561678,44.0968122 35.5454377,44.5340257 C35.5023646,46.2898246 35.464988,47.8263954 35.4306775,49.2547117 C35.378872,51.4113283 35.3399708,53.9566088 35.3126157,56.8103144 C35.3029158,57.8222238 35.2948319,58.8459558 35.2882127,59.8728274 C45.8868548,59.9424134 58.9559907,60.0156356 69.1156205,60.0324379 L69.1156205,60.0324379 Z" fill="#FFFFFF"></path>
        <path d="M39,32.5344238 C39,31.3562826 39.3260498,30.414917 39.9534912,29.9356689 C40.5809326,29.4564209 41.5559896,29 42.8339844,29 C44.2226563,29 45.1569821,29.1678466 46.078491,29.9356689 C47,30.7034913 47,31.6606445 47,32.9909668 C47,34.3273112 46.7901613,35.5421145 46.0784912,36.2225342 C45.3668211,36.9029539 44.1936849,37 42.7905273,37 C41.5270182,37 40.5013427,36.9304199 39.7226563,36.0579834 C38.9439698,35.1855469 39,34.0229492 39,32.5344238 L39,32.5344238 Z" fill="#333333"></path>
        <path d="M41,32.5344238 L41,32.5344238 C40.9998858,32.678217 40.9998858,32.678217 40.9995507,32.8163291 C40.996167,34.2061766 41.052547,34.5444651 41.2147649,34.7262133 C41.3961861,34.9294767 41.6815671,35 42.7905273,35 C43.4994703,35 43.9655507,34.9711212 44.3090786,34.9037792 C44.556276,34.855321 44.6664278,34.8055679 44.6963729,34.7769378 C44.8446529,34.635169 45,34.0246308 45,32.9909668 C45,31.7505732 44.9686871,31.61423 44.7982224,31.472195 C44.3636541,31.1101027 43.9467131,31 42.8339844,31 C42.1543868,31 41.5864657,31.2050543 41.167496,31.525069 C41.183502,31.5128434 41.1610731,31.5457039 41.1223652,31.6527975 C41.046619,31.8623654 41,32.1642413 41,32.5344238 L41,32.5344238 Z" fill="#E1E1E1"></path>
        <path d="M63.6223677,34.3456448 C64.174598,34.3533946 64.6285517,33.912006 64.6363016,33.3597756 C64.6440515,32.8075452 64.2026628,32.3535915 63.6504324,32.3458417 L51.0140344,32.0001005 C50.4618041,31.9923506 50.0078504,32.4337393 50.0001005,32.9859697 C49.9923506,33.5382001 50.4337393,33.9921537 50.9859697,33.9999036 L63.6223677,34.3456448 Z" fill="#333333"></path>
        <path d="M39,52.5344238 C39,51.3562826 39.3260498,50.414917 39.9534912,49.9356689 C40.5809326,49.4564209 41.5559896,49 42.8339844,49 C44.2226563,49 45.1569821,49.1678466 46.078491,49.9356689 C47,50.7034913 47,51.6606445 47,52.9909668 C47,54.3273112 46.7901613,55.5421145 46.0784912,56.2225342 C45.3668211,56.9029539 44.1936849,57 42.7905273,57 C41.5270182,57 40.5013427,56.9304199 39.7226563,56.0579834 C38.9439698,55.1855469 39,54.0229492 39,52.5344238 L39,52.5344238 Z" fill="#333333"></path>
        <path d="M41,52.5344238 L41,52.5344238 C40.9998858,52.678217 40.9998858,52.678217 40.9995507,52.8163291 C40.996167,54.2061766 41.052547,54.5444651 41.2147649,54.7262133 C41.3961861,54.9294767 41.6815671,55 42.7905273,55 C43.4994703,55 43.9655507,54.9711212 44.3090786,54.9037792 C44.556276,54.855321 44.6664278,54.8055679 44.6963729,54.7769378 C44.8446529,54.635169 45,54.0246308 45,52.9909668 C45,51.7505732 44.9686871,51.61423 44.7982224,51.472195 C44.3636541,51.1101027 43.9467131,51 42.8339844,51 C42.1543868,51 41.5864657,51.2050543 41.167496,51.525069 C41.183502,51.5128434 41.1610731,51.5457039 41.1223652,51.6527975 C41.046619,51.8623654 41,52.1642413 41,52.5344238 L41,52.5344238 Z" fill="#E1E1E1"></path>
        <path d="M40.6854816,44.7272677 C40.9923519,45.0919321 41.1794208,45.4600954 41.2504271,45.6680725 C41.5446187,46.5297589 42.7435815,46.5819318 43.1115119,45.7490576 C43.1315225,45.7037601 43.1744412,45.6105151 43.2390657,45.4762842 C43.3490085,45.2479232 43.47833,44.9922781 43.625771,44.7163542 C44.047035,43.9279925 44.526477,43.1399925 45.0522167,42.4093333 C45.5789958,41.6772295 46.1229272,41.0451709 46.67349,40.5435471 C47.0817369,40.1715888 47.1111546,39.5391076 46.7391963,39.1308608 C46.3672381,38.7226139 45.7347569,38.6931962 45.32651,39.0651544 C44.6635486,39.6691859 44.031291,40.4038812 43.4287952,41.241214 C42.8465362,42.0504222 42.0487807,43.2481797 41.9606391,43.1578951 C41.5083051,42.6945631 40.9738111,42.3281715 40.3511234,42.0946636 C39.8340031,41.9007435 39.2575909,42.162749 39.0636708,42.6798693 C38.8697507,43.1969897 39.1317562,43.7734018 39.6488766,43.967322 C40.0469428,44.1165968 40.3914116,44.3778143 40.6854816,44.7272677 Z" fill="#333333"></path>
        <path d="M62.1446745,44.4347795 C62.6968698,44.4447192 63.1525703,44.0051342 63.16251,43.4529389 C63.1724498,42.9007436 62.7328648,42.4450432 62.1806695,42.4351034 L51.0180008,42.0001653 C50.4658055,41.9902256 50.010105,42.4298105 50.0001653,42.9820058 C49.9902256,43.5342011 50.4298105,43.9899016 50.9820058,43.9998414 L62.1446745,44.4347795 Z" fill="#333333"></path>
        <path d="M51.1316871,53.8308476 L58.8186145,54.0257289 C59.3707218,54.0397261 59.8296402,53.6035016 59.8436374,53.0513943 C59.8576346,52.4992869 59.4214101,52.0403685 58.8693028,52.0263713 L51.1823754,51.83149 C50.6302681,51.8174929 50.1713497,52.2537173 50.1573525,52.8058247 C50.1433553,53.357932 50.5795797,53.8168504 51.1316871,53.8308476 L51.1316871,53.8308476 Z" fill="#333333"></path>
    </g>
</symbol></defs>
    <use xlink:href="#fs-img-flowmulti" ng-href="#fs-img-flowmulti"></use>
</svg>