<svg xmlns:xlink="http://www.w3.org/1999/xlink" xmlns="http://www.w3.org/2000/svg" aria-hidden="true" class="css-oj2yui-StyledIcon" width="24"  height="24" ><defs><symbol id="flowui-icon-admin" viewBox="0 0 24 24"><g transform="translate(-53.000000, -300.000000)" stroke="none" stroke-width="1" fill-rule="evenodd"><path d="M66.529013,303.846559 C65.668665,303.99327 64.873649,304.331599 64.189436,304.816078 L62.5493483,303.84405 L61.84405,304.549348 L62.8160775,306.189436 C62.3315993,306.873649 61.9932696,307.668665 61.8465593,308.529013 L60,309.001279 L60,309.998721 L61.8465593,310.470987 C61.9932696,311.331335 62.3315993,312.126351 62.8160775,312.810564 L61.84405,314.450652 L62.5493483,315.15595 L64.189436,314.183922 C64.873649,314.668401 65.668665,315.00673 66.529013,315.153441 L67.0012788,317 L67.9987212,317 L68.470987,315.153441 C69.331335,315.00673 70.126351,314.668401 70.810564,314.183922 L72.4506517,315.15595 L73.15595,314.450652 L72.1839225,312.810564 C72.6684007,312.126351 73.0067304,311.331335 73.1534407,310.470987 L75,309.998721 L75,309.001279 L73.1534407,308.529013 C73.0067304,307.668665 72.6684007,306.873649 72.1839225,306.189436 L73.15595,304.549348 L72.4506517,303.84405 L70.810564,304.816078 C70.126351,304.331599 69.331335,303.99327 68.470987,303.846559 L67.9987212,302 L67.0012788,302 L66.529013,303.846559 Z M65.4447224,301.601904 C65.6265936,300.890788 66.2672738,300.393343 67.0012788,300.393343 L67.9987212,300.393343 C68.7327262,300.393343 69.3734064,300.890788 69.5552776,301.601904 L69.8087369,302.528858 L70.8679212,302.914449 L71.6314967,302.461902 C72.2629341,302.087669 73.0677102,302.188952 73.5867301,302.707972 L74.2920284,303.41327 C74.8110483,303.93229 74.9123309,304.737066 74.5380981,305.368503 L74.0368502,306.154567 L74.5048644,307.216274 L75.3980963,307.444722 C76.1092124,307.626594 76.6066575,308.267274 76.6066575,309.001279 L76.6066575,309.998721 C76.6066575,310.732726 76.1092124,311.373406 75.3980963,311.555278 L74.4805666,311.780069 L74.0772128,312.853852 L74.5380981,313.631497 C74.9123309,314.262934 74.8110483,315.06771 74.2920284,315.58673 L73.5867301,316.292028 C73.0677102,316.811048 72.2629341,316.912331 71.6314967,316.538098 L70.8765746,316.020793 L69.7792104,316.522519 L69.5552776,317.398096 C69.3734064,318.109212 68.7327262,318.606657 67.9987212,318.606657 L67.0012788,318.606657 C66.2672738,318.606657 65.6265936,318.109212 65.4447224,317.398096 L65.2518331,316.4909 L64.1309997,316.086191 L63.3685033,316.538098 C62.7370659,316.912331 61.9322898,316.811048 61.4132699,316.292028 L60.7079716,315.58673 C60.1889517,315.06771 60.0876691,314.262934 60.4619019,313.631497 L60.9781316,312.874501 L60.5511641,311.798055 L59.6019037,311.555278 C58.8907876,311.373406 58.3933425,310.732726 58.3933425,309.998721 L58.3933425,309.001279 C58.3933425,308.267274 58.8907876,307.626594 59.6019037,307.444722 L60.5119403,307.243014 L60.969502,306.22497 L60.4619019,305.368503 C60.0876691,304.737066 60.1889517,303.93229 60.7079716,303.41327 L61.4132699,302.707972 C61.9322898,302.188952 62.7370659,302.087669 63.3685033,302.461902 L64.2070917,302.975588 L65.2159416,302.520737 L65.4447224,301.601904 Z"></path><path d="M59.7105034,315 L59.1995446,315 L58.8150184,316.503497 C58.4072882,316.614827 58.042394,316.829939 57.7504841,317.118685 L56.2554794,316.699757 L56,317.14226 L57.1098174,318.227031 C57.0584589,318.423423 57.0311164,318.629527 57.0311164,318.842017 C57.0311164,319.054507 57.0584589,319.260611 57.1098174,319.457002 L56,320.541774 L56.2554794,320.984277 L57.7504841,320.565349 C58.042394,320.854095 58.4072882,321.069207 58.8150184,321.180537 L59.1995446,322.684034 L59.7105034,322.684034 L60.0950296,321.180537 C60.5027598,321.069207 60.867654,320.854095 61.1595639,320.565349 L62.6545686,320.984277 L62.910048,320.541774 L61.8002307,319.457002 C61.8515891,319.260611 61.8789316,319.054507 61.8789316,318.842017 C61.8789316,318.629527 61.8515891,318.423423 61.8002307,318.227031 L62.910048,317.14226 L62.6545686,316.699757 L61.1595639,317.118685 C60.867654,316.829939 60.5027598,316.614827 60.0950296,316.503497 L59.7105034,315 Z M61.3996066,315.493642 L62.2498308,315.255393 C62.9096916,315.070488 63.6109676,315.356288 63.9536067,315.949757 L64.2090861,316.39226 C64.5517253,316.985729 64.4485981,317.735952 63.958535,318.214955 C63.958535,318.214955 63.3789316,318.503988 63.3789316,318.842017 C63.3789316,319.180046 63.958535,319.469079 63.958535,319.469079 C64.4485981,319.948082 64.5517253,320.698305 64.2090861,321.291774 L63.9536067,321.734277 C63.6109676,322.327746 62.9096916,322.613546 62.2498308,322.428641 L61.3832812,322.197251 L61.1637282,323.055703 C60.9939305,323.719612 60.3957817,324.184034 59.7105034,324.184034 L59.1995446,324.184034 C58.5142663,324.184034 57.9161175,323.719612 57.7463198,323.055703 L57.5304865,322.184775 L56.6602172,322.428641 C56.0003564,322.613546 55.2990804,322.327746 54.9564413,321.734277 L54.7009619,321.291774 C54.3583228,320.698305 54.4614499,319.948082 54.951513,319.469079 L55.5311164,318.842017 L54.951513,318.214955 C54.4614499,317.735952 54.3583228,316.985729 54.7009619,316.39226 L54.9564413,315.949757 C55.2990804,315.356288 56.0003564,315.070488 56.6602172,315.255393 L57.531371,315.468781 L57.7463198,314.628331 C57.9161175,313.964422 58.5142663,313.5 59.1995446,313.5 L59.7105034,313.5 C60.3957817,313.5 60.9939305,313.964422 61.1637282,314.628331 L61.3996066,315.493642 Z"></path><circle cx="67.5" cy="309.5" r="1.5"></circle></g></symbol></defs><use xlink:href="#flowui-icon-admin" fill="#FFFFFF"></use></svg>