<svg width="36" height="35" viewBox="0 0 36 35" fill="none" xmlns="http://www.w3.org/2000/svg">
    <rect x="-1" width="37" height="37" rx="6" fill="#66890E" />
    <path fill-rule="evenodd" clip-rule="evenodd"
        d="M13.472 22.758C12.2546 25.2781 11.3733 27.6352 10.6265 29.4074C10.2976 30.188 9.84371 30.4404 9.34238 29.4074C8.9245 28.5464 6.77506 22.0181 3.90432 18.5258C3.69064 18.2659 2.89024 17.2895 4.30283 17.8485C8.75072 19.6085 9.63852 24.5135 9.70788 24.0038C12.3657 14.2606 14.2693 13.3638 15.0223 11.4266C15.7753 9.48944 15.2514 8.99534 14.6871 8.75603C14.1229 8.51672 12.9813 8.62841 13.9046 7.76247C14.8278 6.89653 16.3447 7.35853 16.8477 7.35853C17.3507 7.35853 17.7498 7.74251 18.7323 7.13383C20.2958 6.04998 22.7391 5.41187 23.6668 5.41187C24.5944 5.41187 24.9822 5.51374 25.7067 5.94487C26.4312 6.376 26.695 6.4129 27.1228 7.35853C27.6779 7.50477 28.1339 7.80872 27.9696 8.21767C27.8053 8.62662 27.5839 8.54704 26.7429 8.54704C25.9019 8.54704 25.248 9.17278 24.7399 9.08841C24.4996 9.38723 23.9369 9.48944 23.9369 9.48944C23.8189 11.683 23.0913 12.5612 22.7516 13.0146C22.412 13.468 22.0542 13.2651 22.1694 12.8339C22.2847 12.4028 22.3025 11.8175 22.3025 11.8175C22.3025 11.8175 20.9629 13.3912 21.2454 12.2618C18.2649 14.7343 16.1175 17.7888 14.4907 20.7714C16.6441 22.3926 17.1045 24.6665 17.169 24.334C19.3125 18.9701 20.1664 18.7815 20.7918 17.3622C21.4172 15.943 21.0719 15.5429 20.6857 15.3326C20.2995 15.1223 19.4892 15.1456 20.1824 14.5425C20.8756 13.9393 21.9226 14.3681 22.2773 14.3949C22.6319 14.4217 22.8946 14.7322 23.617 14.3259C24.7723 13.5927 26.5261 13.2421 27.1802 13.2915C27.8343 13.3409 28.1028 13.4383 28.5925 13.8017C29.0823 14.165 29.2666 14.2069 29.522 14.942C29.9063 15.0817 30.213 15.335 30.0772 15.6343C29.9414 15.9336 29.7892 15.8619 29.1962 15.8171C28.6032 15.7723 28.1117 16.2089 27.7575 16.1182C27.5735 16.3306 27.1718 16.3776 27.1718 16.3776C26.9816 18.0238 26.4257 18.6466 26.1641 18.9701C25.9026 19.2935 25.6602 19.1216 25.7624 18.8029C25.8647 18.4843 25.9058 18.0443 25.9058 18.0443C25.9058 18.0443 24.8846 19.1585 25.1389 18.3228C20.4993 21.8802 18.497 27.0425 17.0153 30.1734C16.7453 30.7439 16.413 30.9098 16.1099 30.105C15.8889 29.5182 14.9455 25.5949 13.472 22.758Z"
        fill="white" />
</svg>