<svg xmlns:xlink="http://www.w3.org/1999/xlink" xmlns="http://www.w3.org/2000/svg" aria-hidden="true" class="css-oj2yui-StyledIcon" width="24"  height="24" ><defs><symbol id="flowui-icon-reviewer" viewBox="0 0 24 24"><g stroke="none" stroke-width="1" fill-rule="evenodd"><path d="M63.1320947,277.476793 C63.3791875,278.589987 63.9810533,279.696367 65.0044959,280.333191 C66.3968651,281.199575 69.9995001,281.208191 69.9995001,281.208191 C69.9995001,281.208191 70.4440798,283.001941 73.1875691,283.266264 C73.4701212,283.266264 73.5156941,283.038399 73.4336628,282.856108 C73.3516316,282.673816 72.8909099,281.217328 73.4270832,280.896909 C74.0651041,280.515625 75.3746118,280.734375 76.1796875,279.585937 C76.9847632,278.4375 76.9990005,277.009996 76.9990005,275.928455 C76.9990005,273.703046 76.6085288,272.70775 75.3563827,271.937199 C74.2267517,271.242041 72.5691355,271.289299 70.0928031,271.294009 C70.0941496,270.961845 70.0846948,270.662397 70.0834961,270.402832 C70.078125,269.239746 70.0359638,267.563327 68.4070848,266.449917 C66.7782058,265.336507 64.9684458,265.357389 61.7561145,265.357389 C58.5437833,265.357389 56.4228535,265.259853 54.995821,266.138027 C53.4753579,267.073697 53.0012137,268.28227 53.0012137,270.984553 C53.0012137,272.297852 53.0185019,274.03125 53.9960938,275.425781 C54.9736857,276.820313 56.5638022,276.554688 57.3385418,277.017675 C57.9896094,277.406755 57.4301617,279.175348 57.3305523,279.396702 C57.2309429,279.618056 57.2862814,279.894749 57.6293804,279.894749 C60.9607603,279.573785 61.5006071,277.39566 61.5006071,277.39566 C61.5006071,277.39566 62.1777761,277.471738 63.1320947,277.476793 L63.1320947,277.476793 Z M69.9824134,272.794198 C70.1190442,272.794022 70.2690219,272.793644 70.4927126,272.792987 C73.1960579,272.785045 74.0024283,272.865266 74.5702365,273.214686 C75.2981835,273.662654 75.4990005,274.155197 75.4990005,275.928455 C75.4990005,277.384703 75.3793806,278.114431 74.9514275,278.724905 C74.8431945,278.879299 74.7173831,278.964154 74.4874287,279.040127 C74.3454066,279.087049 74.2825594,279.101687 73.8548273,279.192072 C73.313673,279.306425 73.0147806,279.395863 72.6576093,279.60931 C71.412279,280.353525 72.0141253,281.451857 71.7122776,281.165392 C71.5287858,280.991251 71.4563606,280.851019 71.4554476,280.847335 C71.2899119,280.179447 70.6911821,279.709841 70.0030875,279.708195 C69.8533681,279.707837 69.5748709,279.701264 69.2123408,279.682455 C68.6089539,279.65115 68.0071489,279.5961 67.4556532,279.512899 C66.6628845,279.393299 66.0595369,279.222998 65.7969623,279.059614 C65.2738902,278.73414 64.8729859,278.126874 64.6630767,277.4179 C66.2989476,277.276142 68.111324,276.836012 68.8823242,275.649658 C69.5390743,274.639103 69.8438563,273.664 69.9824134,272.794198 L69.9824134,272.794198 Z M58.1080157,275.730076 C57.7150509,275.495239 57.3752121,275.393549 56.7526838,275.262 C56.2191526,275.149258 56.1388009,275.130543 55.9501456,275.068215 C55.6093347,274.955617 55.39883,274.813638 55.2243538,274.564749 C54.654617,273.752021 54.5012137,272.8162 54.5012137,270.984553 C54.5012137,268.730394 54.7878951,268.027251 55.7819672,267.415515 C56.5455081,266.945643 57.5479568,266.845916 60.9026504,266.855771 C61.3037813,266.85695 61.5094782,266.857389 61.7561145,266.857389 C61.8431369,266.857385 61.8431369,266.857385 61.9291333,266.857375 C65.6014002,266.856937 66.5228372,266.978892 67.5606213,267.688263 C68.3718957,268.242804 68.5766017,268.913336 68.5835121,270.409759 C68.5839753,270.510062 68.5847899,270.568094 68.5883525,270.786518 C68.6174083,272.567893 68.4371608,273.581962 67.6245959,274.832272 C67.3294856,275.286365 66.4618766,275.666335 65.169349,275.851215 C64.1747111,275.993485 63.0868498,276.005877 62.0878897,275.939645 C61.8815279,275.925963 61.7368151,275.912761 61.6680727,275.905038 C60.9201322,275.82101 60.2257238,276.304263 60.0446595,277.034805 C60.0298684,277.094483 59.9140648,277.318706 59.6420717,277.576838 C59.5190372,277.693603 59.2161987,277.898028 59.2161987,277.898028 C59.2161987,277.898028 59.4989889,276.561327 58.1080157,275.730076 Z" transform="translate(-53.000000, -262.000000)"></path><path d="M62.2778832,272.495798 C61.9619662,271.892334 61.8940567,270.837401 60.1910867,269.00872 C59.9680145,268.769181 59.7324041,268.535949 59.4839526,268.309582 C59.1777674,268.030613 58.7034065,268.052676 58.4244378,268.358862 C58.1454691,268.665047 58.1675324,269.139408 58.4737176,269.418376 C58.6916953,269.616978 58.898133,269.821333 59.0933672,270.030979 C59.9553806,270.956624 60.5683529,271.945739 60.9745135,272.931504 C61.1151524,273.272839 61.2197204,273.587665 61.293412,273.867145 C61.3355916,274.027114 61.3574887,274.134277 61.3644071,274.17967 C61.4729775,274.892023 62.4257733,275.056303 62.7666295,274.42144 C62.7949298,274.368729 62.8548972,274.265242 62.9418489,274.128574 C63.0881902,273.898561 63.2527196,273.668673 63.4293324,273.457133 C63.7417881,273.082885 64.0532802,272.815031 64.3217092,272.698018 C64.7014143,272.532498 64.8750457,272.090505 64.7095256,271.7108 C64.5440056,271.331095 64.1020132,271.157464 63.7223081,271.322984 C63.201583,271.549977 62.7263732,271.958614 62.2778832,272.495798 Z" transform="translate(-53.000000, -262.000000) translate(61.500514, 271.465552) scale(-1, 1) translate(-61.500514, -271.465552)"></path></g></symbol></defs><use xlink:href="#flowui-icon-reviewer" fill="#FFFFFF"></use></svg>