<svg xmlns:xlink="http://www.w3.org/1999/xlink" xmlns="http://www.w3.org/2000/svg" aria-hidden="true" class="css-oj2yui-StyledIcon" width="24"  height="24" ><defs><symbol id="flowui-icon-author" viewBox="0 0 24 24"><g stroke="none" stroke-width="1" fill-rule="evenodd"><path d="M66.7932563,81.8535651 C66.9753675,81.8302556 67.3410875,81.7939845 67.8777723,81.7572841 C69.9838276,81.6132647 72.6010447,81.6089343 75.6350118,81.8376822 C76.0480531,81.8688237 76.4081344,81.5592327 76.4392759,81.1461915 C76.4704174,80.7331502 76.1608265,80.373069 75.7477852,80.3419275 C72.6394829,80.1075751 69.9507464,80.1120238 67.7754361,80.2607791 C67.4459243,80.2833123 67.157742,80.307531 66.912459,80.3318575 C66.7626705,80.3467131 66.6589328,80.3585207 66.6028159,80.3657034 C66.1919542,80.4182921 65.9015166,80.7939928 65.9541052,81.2048545 C66.0066939,81.6157162 66.3823947,81.9061538 66.7932563,81.8535651 L66.7932563,81.8535651 Z" transform="translate(-53.000000, -77.000000)"></path><path d="M66.7701645,84.9080012 C66.8436769,84.9006851 66.9840153,84.8876229 67.1812343,84.8707255 C67.5113933,84.842438 67.8786439,84.8141234 68.2729999,84.7876894 C69.3190336,84.717573 70.360368,84.6733896 71.3292885,84.6676691 C72.2076876,84.6624831 72.984693,84.6896003 73.6301256,84.7531387 C74.0423466,84.7937191 74.4094145,84.4924448 74.4499949,84.0802239 C74.4905752,83.6680029 74.1893009,83.3009349 73.77708,83.2603546 C73.0732844,83.1910708 72.2467825,83.1622262 71.3204327,83.1676953 C70.3175111,83.1736164 69.246901,83.219042 68.1726788,83.2910479 C67.7686739,83.3181287 67.3922412,83.3471513 67.0531859,83.376201 C66.8488763,83.3937059 66.7017377,83.4074011 66.6216159,83.4153749 C66.2094385,83.4563955 65.9085565,83.823785 65.949577,84.2359624 C65.9905976,84.6481397 66.3579871,84.9490218 66.7701645,84.9080012 L66.7701645,84.9080012 Z" transform="translate(-53.000000, -77.000000)"></path><path d="M66.7942356,93.8552647 C66.9757653,93.8317747 67.3404532,93.7952055 67.8756428,93.7581981 C69.9644369,93.6137614 72.5586373,93.6086357 75.5649256,93.8358403 C75.9779613,93.867056 76.3380982,93.5575299 76.369314,93.1444942 C76.4005298,92.7314585 76.0910036,92.3713216 75.6779679,92.3401059 C72.5968595,92.1072466 69.9306685,92.1125146 67.7721674,92.2617714 C67.4433536,92.2845083 67.1557549,92.308947 66.9109426,92.3334956 C66.7614107,92.34849 66.6578196,92.3604108 66.6017406,92.3676674 C66.190952,92.4208234 65.9010335,92.7969249 65.9541895,93.2077135 C66.0073455,93.6185022 66.383447,93.9084207 66.7942356,93.8552647 L66.7942356,93.8552647 Z" transform="translate(-53.000000, -77.000000)"></path><path d="M66.8473076,96.9495226 C67.0146316,96.9148876 67.33336,96.8605091 67.7694032,96.8054654 C69.0070822,96.6492276 70.3223412,96.6024748 71.5887082,96.7305421 C72.0008198,96.7722188 72.3686878,96.471922 72.4103645,96.0598105 C72.4520412,95.6476989 72.1517444,95.2798309 71.7396329,95.2381542 C70.3469943,95.0973171 68.9230279,95.147934 67.5815423,95.3172758 C67.3040799,95.3523011 67.0525103,95.3899303 66.830917,95.4277366 C66.6953273,95.4508696 66.5980711,95.4693152 66.5432621,95.4806604 C66.137647,95.5646202 65.8768939,95.9614991 65.9608538,96.3671142 C66.0448136,96.7727294 66.4416925,97.0334825 66.8473076,96.9495226 L66.8473076,96.9495226 Z" transform="translate(-53.000000, -77.000000)"></path><path d="M57.1409669,95.0550477 C57.3261739,95.2342898 57.5209646,95.4350991 57.7226183,95.6535373 C58.0457189,96.0035309 58.3699683,96.3804969 58.6785522,96.7576687 C58.8635069,96.9837326 59.0012832,97.1585425 59.0758564,97.2559413 C59.4378367,97.728718 60.1799171,97.6114254 60.3784411,97.0500559 C60.4125742,96.9535374 60.4876929,96.7595649 60.606019,96.4814434 C60.8063198,96.0106429 61.0543209,95.4820635 61.3521849,94.9090086 C62.2054572,93.2674138 63.2845272,91.6053235 64.605655,90.0285201 C64.8716738,89.7110191 64.8299392,89.2379828 64.5124382,88.971964 C64.1949372,88.7059452 63.721901,88.7476798 63.4558822,89.0651808 C62.0601972,90.7309703 60.9223127,92.4836525 60.0212412,94.2172073 C59.7050848,94.8254547 59.4315001,95.3199169 59.4315001,95.3199169 C59.4315001,95.3199169 59.0288208,94.8570941 58.8247772,94.636067 C58.6050302,94.3980295 58.3909298,94.1773139 58.1841277,93.9771722 C57.9283989,93.7296796 57.6864256,93.5161075 57.4586617,93.3400614 C57.1309332,93.0867496 56.6599069,93.1470762 56.406595,93.4748047 C56.1532832,93.8025332 56.2136098,94.2735595 56.5413383,94.5268713 C56.7208042,94.6655863 56.9224007,94.8435208 57.1409669,95.0550477 Z" transform="translate(-53.000000, -77.000000)"></path><path d="M61.8891125,78.6337788 L61.8891125,78.6337788 L54.9993977,78.5 C54.7211711,78.5 54.5,78.7205211 54.5,78.992017 L54.5,86.007983 C54.5,86.2752359 54.7241175,86.5 54.992017,86.5 L62.007983,86.5 C62.2744001,86.5 62.5,86.2744875 62.5000613,86.0165706 L62.4383429,79.1901121 C62.4356665,78.894086 62.1837043,78.6394869 61.8891125,78.6337788 L61.8891125,78.6337788 Z M61.9181715,77.1340603 C63.0238425,77.1554841 63.9282603,78.068128 63.9382816,79.1765511 L64,86.0030096 C64,87.1059169 63.0998238,88 62.007983,88 L54.992017,88 C53.8918564,88 53,87.0998238 53,86.007983 L53,78.992017 C53,77.8918564 53.8929762,77 54.9993977,77 L61.9181715,77.1340603 L61.9181715,77.1340603 Z" transform="translate(-53.000000, -77.000000)"></path><path d="M59.9779572,91.5966696 L60.7793687,90.1119945 L54.9993977,90 C53.8929762,90 53,90.8918564 53,91.992017 L53,99.007983 C53,100.099824 53.8918564,101 54.992017,101 L62.007983,101 C63.0998238,101 64,100.105917 64,99.0030096 L63.9477194,93.2204365 L62.4636688,94.9913205 L62.5000613,99.0165706 C62.5,99.2744875 62.2744001,99.5 62.007983,99.5 L54.992017,99.5 C54.7241175,99.5 54.5,99.2752359 54.5,99.007983 L54.5,91.992017 C54.5,91.7205211 54.7211711,91.5 54.9993977,91.5 L59.9779572,91.5966696 Z" transform="translate(-53.000000, -77.000000)"></path></g></symbol></defs><use xlink:href="#flowui-icon-author" fill="#FFFFFF"></use></svg>