<svg xmlns:xlink="http://www.w3.org/1999/xlink" xmlns="http://www.w3.org/2000/svg" aria-hidden="true" class="css-oj2yui-StyledIcon" style="margin-right: 5px; width: 20px; height: 20px; margin-bottom: -4px;" width="24"  height="24" ><defs><symbol id="flowui-icon-add-flow" viewBox="0 0 24 24"><g stroke="none" stroke-width="1" fill-rule="evenodd"><path d="M4.01012117,13.5832623 C3.9903295,13.6117292 3.9903295,13.6117292 3.97053683,13.6401922 C3.48934381,14.3321424 2.97402373,15.0696956 2.45873726,15.8048868 C2.27841292,16.0621667 2.31085205,16.065321 2.31085205,16.065321 L14.7156699,16.0653214 C15.3544769,16.0653214 16.3426755,15.5745489 16.7181031,15.076413 C16.7497905,15.0340811 16.7497905,15.0340811 16.891239,14.8458474 C17.0291234,14.6625571 17.184543,14.4565732 17.3542141,14.2324656 C17.839003,13.5921395 18.3412178,12.9343973 18.8347465,12.2956074 C18.9540296,12.1412156 19.0827714,11.9705607 19.2194644,11.785905 C19.2987268,11.6785878 19.2987268,11.6785878 19.3779774,11.5703818 C19.6595937,11.1851259 19.9542316,10.7703265 20.2433404,10.3552583 C20.4168309,10.1061812 20.5493786,9.91315722 20.6323402,9.79119016 C20.8897726,9.42100465 20.879999,8.65393823 20.6027249,8.27375232 C20.4983672,8.12915597 20.3130918,7.87413114 20.0723908,7.54569759 C19.6712765,6.998382 19.2654066,6.451242 18.8806705,5.94178763 C18.8166136,5.85702662 18.8166136,5.85702662 18.7525285,5.77248349 C18.6090676,5.58337457 18.4717922,5.40392389 18.3415634,5.23536465 C18.1817983,5.02857568 17.9933097,4.79546728 17.7810949,4.54143481 C17.7116868,4.4583496 17.6400111,4.37335087 17.5662665,4.28664116 C17.2453403,3.90929283 16.8996552,3.51623867 16.5537463,3.1318731 C16.346267,2.90132716 16.1856513,2.72582097 16.0813434,2.61306232 C15.6216216,2.10265065 14.5254002,1.61250327 13.8318544,1.60679828 L2.24504305,1.55278724 C2.24504305,1.55278724 2.89418532,2.55957798 3.20909218,3.02713545 C3.27893021,3.13082736 3.34744007,3.23173921 3.41447129,3.32961368 C3.7097307,3.7607316 3.97052893,4.12450154 4.1843153,4.40121201 C4.4080201,4.69076021 4.65066175,5.03507416 4.91147394,5.42883713 C5.02839444,5.60535863 5.14835535,5.79092803 5.27093917,5.98455747 C5.59013688,6.48875188 5.91352166,7.02560319 6.22566161,7.56201944 C6.41294921,7.88387542 6.55566381,8.13545499 6.63744451,8.28246172 C6.91233959,8.77660552 6.88598701,9.38334894 6.56928381,9.85179796 C6.53304374,9.90540168 6.53304374,9.90540168 6.37169562,10.1433649 C6.21484742,10.3744998 6.0397255,10.6319718 5.85064845,10.9092199 C5.31027023,11.7015894 4.76607333,12.4940642 4.25241566,13.2344208 C4.12007051,13.4250693 4.12007051,13.4250693 4.01012117,13.5832623 Z M2.99731452,12.4120388 C4.17345983,10.7173746 5.32662632,9.01167752 5.32662632,9.01167752 C5.32662632,9.01167752 3.97839068,6.58812634 2.99731443,5.3182883 C2.03296073,4.07009479 0.548749895,1.6747029 0.548749895,1.6747029 C-0.0415403745,0.743544346 0.383471766,-0.0038764754 1.48743354,0.00520451836 L13.8441927,0.106849028 C14.9529037,0.115969087 16.4509094,0.782053352 17.195903,1.60919138 C17.195903,1.60919138 18.6352488,3.16204186 19.5285643,4.31828835 C20.5806787,5.68007341 21.8190351,7.39592007 21.8190351,7.39592007 C22.4698973,8.28827805 22.4852044,9.75406612 21.8638352,10.6475897 C21.8638352,10.6475897 20.8465882,12.1450662 20.0217474,13.2126837 C18.9011582,14.6630978 17.9189506,15.9752819 17.9189506,15.9752819 C17.2571339,16.8534365 15.8253578,17.5653214 14.7156699,17.5653214 L1.39510951,17.565321 C0.287803077,17.565321 -0.0894862045,16.8244864 0.544656157,15.9208178 C0.544656157,15.9208178 1.8211692,14.1067031 2.99731452,12.4120388 L2.99731452,12.4120388 Z" transform="translate(-5.000000, -182.000000) translate(6.000000, 185.000000)"></path><path d="M2.07403406,3.34005439 C2.04836371,3.30503033 2.02237157,3.26946332 1.9960639,3.23336388 C1.94138767,3.15824001 1.94138767,3.15824001 1.88689976,3.08300976 C1.63207145,2.73077104 1.36564817,2.35417664 1.10331713,1.97769048 C0.945934601,1.75182189 0.824679578,1.57587816 0.755477646,1.47462511 C0.521753855,1.13265133 0.609507808,0.665956242 0.951481585,0.432232451 C1.29345536,0.19850866 1.76015045,0.286262612 1.99387424,0.62823639 C2.06067732,0.725979537 2.17942092,0.898279145 2.33401926,1.12015199 C2.59165633,1.48990157 2.85316063,1.85954289 3.102208,2.20379086 C3.13795042,2.25313959 3.14959927,2.26922289 3.16965465,2.29680393 C3.27235512,2.20921708 3.38142449,2.11747773 3.49652492,2.02178741 C3.57828374,1.95393784 3.57828374,1.95393784 3.66019755,1.88641216 C3.98589057,1.61834405 4.33394984,1.33918073 4.68189046,1.06498676 C4.89064116,0.900481153 5.05331703,0.773912498 5.14710234,0.70164742 C5.47521066,0.448827713 5.94614588,0.509861194 6.19896558,0.837969516 C6.45178529,1.16607784 6.39075181,1.63701305 6.06264349,1.88983276 C5.9729221,1.95896643 5.81446127,2.08225561 5.61032192,2.24312725 C5.27011247,2.51122869 4.93002165,2.78400086 4.61344126,3.04456864 C4.5342407,3.10985776 4.5342407,3.10985776 4.45546012,3.17523584 C4.32280091,3.28552389 4.19899276,3.38995529 4.08511303,3.48767902 C4.23676822,3.66465515 4.42852657,3.87711576 4.65212241,4.11679925 C4.71317049,4.18212546 4.71317049,4.18212546 4.77454857,4.24737799 C5.02302735,4.51114048 5.29003948,4.78741817 5.55715278,5.05902664 C5.71741952,5.22199047 5.84178056,5.34685677 5.91208698,5.4167757 C6.20578845,5.70885844 6.20710069,6.18373036 5.91501796,6.47743182 C5.62293522,6.77113329 5.1480633,6.77244553 4.85436184,6.4803628 C4.78034496,6.40675387 4.65214022,6.27802824 4.48767953,6.11079989 C4.21358045,5.83208808 3.9393802,5.54837284 3.68272743,5.27593357 C3.61895654,5.2081373 3.61895654,5.2081373 3.55529132,5.14001063 C3.3499212,4.91986421 3.16842897,4.71980535 3.01431893,4.54270697 C3.00493332,4.55363212 2.99549902,4.564647 2.98601688,4.57575052 C2.90683995,4.66846612 2.82493956,4.76664265 2.74078044,4.86958219 C2.51351056,5.14756822 2.2804185,5.44699095 2.05498239,5.74660832 C1.91976059,5.92632577 1.8176653,6.065458 1.7616256,6.14330815 C1.51963393,6.47948207 1.05093811,6.55583188 0.714764185,6.31384021 C0.37859026,6.07184854 0.302240455,5.60315272 0.544232123,5.2669788 C0.606090879,5.18104484 0.714319068,5.03355489 0.856372295,4.84475809 C1.09306124,4.53018507 1.33809889,4.2154174 1.5794899,3.92015905 C1.6701973,3.80920996 1.75892538,3.70284887 1.84534916,3.60164726 C1.92390692,3.5096567 2.00016188,3.42238061 2.07403406,3.34005439 Z" transform="translate(-5.000000, -182.000000) translate(6.000000, 185.000000) translate(13.100000, 8.800000) rotate(-50.000000) translate(-13.100000, -8.800000) translate(9.600000, 5.300000)"></path></g></symbol></defs><use xlink:href="#flowui-icon-add-flow" fill="#FFFFFF"></use></svg>