<svg width="61" height="45" viewBox="0 0 61 45" fill="none" xmlns="http://www.w3.org/2000/svg">
<g clip-path="url(#clip0_6_8064)">
<path d="M30.8868 40.9352C47.3036 40.9352 60.612 39.8923 60.612 38.6058C60.612 37.3193 47.3036 36.2764 30.8868 36.2764C14.47 36.2764 1.16156 37.3193 1.16156 38.6058C1.16156 39.8923 14.47 40.9352 30.8868 40.9352Z" fill="#E1E1E1"/>
<path fill-rule="evenodd" clip-rule="evenodd" d="M6.43851 34.2463C6.43851 26.7817 5.70464 10.8667 6.18867 9.40005C6.67271 7.93339 7.66481 7.1848 9.27957 6.92598C10.8943 6.66716 51.5927 6.2428 53.5704 6.61079C55.8888 7.04216 56.0434 8.09254 56.2956 10.2063C56.5478 12.32 56.1854 34.3784 56.1854 34.3784L6.43851 34.2463Z" fill="#333333"/>
<path fill-rule="evenodd" clip-rule="evenodd" d="M8.24005 36.3169L54.3841 36.4264C54.3856 36.3341 54.3886 33.5691 54.3926 33.3161C54.3995 32.8942 54.407 32.4124 54.4152 31.8788C54.4386 30.3542 54.4619 28.7205 54.4837 27.0431C54.5067 25.2753 54.5266 23.5606 54.5425 21.9372C54.6056 15.497 54.598 11.1574 54.5035 10.3651C54.2631 8.35002 54.2479 8.32555 53.1903 8.12877C51.6425 7.84078 11.2332 8.19241 9.60892 8.45275C8.64114 8.60787 8.21112 8.94728 7.92146 9.82498C7.7529 10.3357 7.79354 14.1331 8.03207 23.0705C8.03752 23.2748 8.03752 23.2748 8.04297 23.4792C8.15704 27.7601 8.23331 32.3017 8.23331 32.3017L8.24005 36.3169Z" fill="white"/>
<path fill-rule="evenodd" clip-rule="evenodd" d="M31.1264 9.53064C41.7808 9.52511 52.265 9.32281 52.7986 9.56583C53.3346 9.80998 53.4669 15.4659 53.3775 20.9047C53.2887 26.3036 53.1435 31.5424 53.1435 31.5424C53.1358 31.831 52.86 32.0645 52.5245 32.064L9.7598 31.9939C9.42573 31.9933 9.14826 31.762 9.14019 31.474C9.14019 31.474 8.54782 11.4639 9.25302 10.0523C9.60597 9.34588 20.4512 9.53619 31.1264 9.53064Z" fill="#333333"/>
<path fill-rule="evenodd" clip-rule="evenodd" d="M10.3352 30.9628C10.3352 30.9628 10.314 30.4893 10.3045 30.1249C10.2773 29.0834 10.25 27.9449 10.2246 26.7465C10.1804 24.6641 10.1465 22.6258 10.1269 20.7148C10.0984 17.9358 10.1018 15.5818 10.1436 13.7905C10.1875 11.9113 10.2439 10.8179 10.2439 10.8179C10.2439 10.8179 10.5981 10.772 10.8299 10.7508C11.6187 10.6788 12.7664 10.6278 14.2816 10.5951C16.7214 10.5426 19.099 10.5383 25.4269 10.5563C27.9084 10.5634 29.1526 10.566 30.6153 10.5661C30.8712 10.566 30.8712 10.566 31.1271 10.5659C33.9071 10.5645 36.5463 10.5516 40.6016 10.5239C46.5107 10.4835 47.3045 10.479 49.059 10.4822C50.1865 10.4842 51.9166 10.5206 51.9166 10.5206C51.9166 10.5206 51.896 10.5044 51.9345 10.7936C52.0141 11.3918 52.0773 12.2505 52.1223 13.3246C52.2064 15.3338 52.2235 18.0373 52.1766 20.8901C52.1535 22.2937 52.1254 23.7628 52.0933 25.2695C52.0604 26.8157 52.0251 28.3188 51.9898 29.7194C51.9775 30.2096 51.966 30.6519 51.9557 31.039C51.954 31.1025 39.9445 31.1221 34.86 31.1181C34.9261 29.2503 34.9801 27.3413 35.0183 25.4205C35.0206 25.3041 35.033 24.6949 35.0367 24.5069C35.0452 24.0829 35.0524 23.7056 35.0593 23.3216C35.0823 22.0432 35.0984 20.8716 35.1062 19.7632C35.1334 15.9094 35.0687 13.7351 34.815 13.2423C34.4902 12.6111 33.2937 12.4253 31.0405 12.3448C30.1159 12.3118 29.1428 12.3102 28.2055 12.3273C28.0206 12.3306 27.5972 12.3405 27.7422 12.3374C26.6523 12.3608 25.4316 12.3735 24.1034 12.3767C22.0091 12.3817 19.7634 12.363 17.5329 12.3288C16.8385 12.3182 16.1968 12.3068 15.6235 12.2954C15.4229 12.2914 15.2452 12.2877 15.0923 12.2844C14.9377 12.281 14.9377 12.281 14.9056 12.2802C14.7273 12.2878 14.7273 12.2878 14.6085 12.2942C13.14 12.3751 12.632 12.688 12.5532 13.8913C12.5413 14.4627 12.5126 15.5466 12.4635 17.2898C12.4337 18.3505 12.301 22.9837 12.3115 22.6161C12.3051 22.8423 12.3051 22.8423 12.2986 23.0686C12.2728 23.9777 12.2503 24.7733 12.2297 25.5128C12.1984 26.6348 12.175 27.9571 12.1585 29.4389C12.1527 29.9638 12.1438 31.0272 12.1438 31.0272L10.3352 30.9628Z" fill="#DAE6F0"/>
<path fill-rule="evenodd" clip-rule="evenodd" d="M5.60147 33.1769C7.26467 33.1769 26.5579 33.1707 26.5579 33.1707C26.8877 33.1706 27.1551 33.3985 27.1551 33.6845V34.0369C27.1551 34.3208 27.4216 34.5577 27.7496 34.566C27.7496 34.566 30.6162 34.6404 31.9582 34.6595C33.3029 34.6787 36.2261 34.6869 36.2261 34.6869C36.5606 34.6881 36.8319 34.461 36.8319 34.175V33.8226C36.8319 33.5387 37.0985 33.3067 37.4279 33.3044C37.4279 33.3044 54.6536 33.1882 57.0412 33.0635C59.4287 32.9388 59.1138 34.3438 59.1084 34.4626C59.0848 34.9891 59.1272 36.6233 59.1272 36.6233C59.1503 37.7659 58.0931 38.7005 56.7676 38.7108L31.2849 38.9095L5.61123 38.7107C4.28231 38.7004 3.20502 37.7697 3.20502 36.6223C3.20502 36.6223 3.20502 35.0347 3.20502 34.2075C3.20502 33.0859 4.64296 33.1769 5.60147 33.1769Z" fill="#333333"/>
<path fill-rule="evenodd" clip-rule="evenodd" d="M5.00657 36.6223C5.00657 36.9148 5.28397 37.1552 5.62743 37.1579L31.2686 37.3566L56.7513 37.1579C57.0766 37.1554 57.3316 36.9299 57.3261 36.6581C57.3253 36.6253 57.459 34.5975 57.1501 34.6136C56.128 34.667 52.6497 34.7201 47.3924 34.7733C45.2156 34.7954 42.8836 34.8159 40.5517 34.8342C39.7356 34.8406 39.033 34.8476 38.5094 34.833C38.1882 35.6572 37.2796 36.2434 36.2202 36.2399C36.1812 36.2398 32.3655 36.2185 31.9284 36.2123C31.496 36.2061 27.7254 36.119 27.6969 36.1183C26.3938 36.0854 25.5245 34.724 25.5245 34.724C25.5245 34.724 24.5416 34.7243 23.518 34.7246C21.2246 34.7253 5.48883 34.7295 5.38154 34.7289C5.13173 34.7273 4.97833 34.7264 4.97833 34.7264C4.97833 34.7264 5.00657 36.5624 5.00657 36.6223Z" fill="white"/>
<path fill-rule="evenodd" clip-rule="evenodd" d="M33.8175 25.4028C33.8198 25.2861 33.8322 24.6769 33.8359 24.4891C33.8444 24.0657 33.8516 23.6889 33.8585 23.3055C33.8814 22.0301 33.8975 20.8616 33.9053 19.7569C33.9294 16.3344 33.858 13.9355 33.7172 13.6621C33.7462 13.7184 33.733 13.7099 33.6611 13.6844C33.5183 13.6337 33.3049 13.5853 33.0328 13.543C32.5152 13.4627 31.8185 13.4088 30.9908 13.3792C30.0952 13.3473 29.1452 13.3457 28.2309 13.3623C28.0502 13.3656 27.6304 13.3754 27.7722 13.3723C26.6726 13.396 25.4433 13.4088 24.1068 13.412C22.0032 13.417 19.7497 13.3983 17.5116 13.364C16.815 13.3533 16.1712 13.3419 15.5958 13.3304C15.3944 13.3264 15.2158 13.3227 15.0621 13.3193C14.9063 13.3159 14.9063 13.3159 14.9277 13.3143C14.8017 13.3211 14.8017 13.3211 14.6852 13.3274C13.7574 13.3785 13.7911 13.3578 13.7523 13.9497C13.7421 14.484 13.7133 15.569 13.6642 17.3149C13.6344 18.3759 13.5017 23.0094 13.5122 22.6415C13.5058 22.8677 13.5058 22.8677 13.4993 23.094C13.4734 24.0029 13.451 24.7983 13.4304 25.5377C13.3993 26.654 13.3759 27.9716 13.3595 29.4488C13.3537 29.9726 13.3488 30.5026 13.3448 31.0341C19.7094 31.0701 27.5576 31.108 33.6585 31.1167C33.725 29.2438 33.7792 27.3291 33.8175 25.4028Z" fill="white"/>
<path fill-rule="evenodd" clip-rule="evenodd" d="M16.2578 24.1688L30.7677 24.3939C31.0993 24.3991 31.373 24.1715 31.3789 23.8857C31.3849 23.5998 31.1209 23.3639 30.7893 23.3588L16.2794 23.1336C15.9478 23.1285 15.6742 23.356 15.6682 23.6419C15.6622 23.9277 15.9262 24.1636 16.2578 24.1688Z" fill="#333333"/>
<path fill-rule="evenodd" clip-rule="evenodd" d="M16.2613 17.8764L31.1876 18.0335C31.5193 18.037 31.7914 17.8081 31.7954 17.5222C31.7995 17.2363 31.5339 17.0018 31.2023 16.9983L16.2759 16.8412C15.9443 16.8377 15.6722 17.0666 15.6681 17.3524C15.6641 17.6383 15.9296 17.8729 16.2613 17.8764Z" fill="#333333"/>
<path fill-rule="evenodd" clip-rule="evenodd" d="M16.2534 19.6241L20.8695 19.725C21.201 19.7323 21.4766 19.5065 21.485 19.2207C21.4934 18.9349 21.2314 18.6973 20.8999 18.6901L16.2838 18.5892C15.9523 18.5819 15.6767 18.8078 15.6683 19.0935C15.6599 19.3793 15.9218 19.6169 16.2534 19.6241Z" fill="#333333"/>
<path fill-rule="evenodd" clip-rule="evenodd" d="M16.2602 16.1285L31.0546 16.3074C31.3862 16.3114 31.6588 16.083 31.6635 15.7971C31.6681 15.5112 31.4031 15.2763 31.0714 15.2722L16.277 15.0933C15.9454 15.0893 15.6728 15.3177 15.6682 15.6036C15.6635 15.8895 15.9286 16.1245 16.2602 16.1285Z" fill="#333333"/>
<path fill-rule="evenodd" clip-rule="evenodd" d="M16.2578 25.9167L30.7677 26.1418C31.0993 26.147 31.373 25.9194 31.3789 25.6336C31.3849 25.3477 31.1209 25.1118 30.7893 25.1067L16.2794 24.8815C15.9478 24.8764 15.6742 25.1039 15.6682 25.3898C15.6622 25.6756 15.9262 25.9115 16.2578 25.9167Z" fill="#333333"/>
<path fill-rule="evenodd" clip-rule="evenodd" d="M16.2581 27.6646L28.1374 27.8436C28.469 27.8486 28.7425 27.621 28.7483 27.3351C28.7541 27.0493 28.49 26.8135 28.1584 26.8085L16.2791 26.6294C15.9475 26.6244 15.674 26.8521 15.6682 27.138C15.6624 27.4238 15.9265 27.6596 16.2581 27.6646Z" fill="#333333"/>
<path fill-rule="evenodd" clip-rule="evenodd" d="M46.2571 20.7284L48.6482 20.5898L49.2084 20.5573V20.0733V18.5203C49.2083 18.5278 49.2083 18.5274 49.2084 18.5203C49.2108 18.324 49.1919 18.0358 49.1327 17.6863C49.0384 17.129 48.8647 16.5734 48.5898 16.0493C47.7565 14.4611 46.1772 13.4873 43.7619 13.4873C41.3409 13.4873 39.791 14.4673 39.018 16.0632C38.7779 16.5588 38.6289 17.0836 38.5521 17.6131C38.5012 17.9636 38.4879 18.2671 38.4958 18.4996C38.4973 18.5362 38.4973 18.5362 38.4981 18.5489L38.4971 20.6247V21.1783L39.138 21.1411L41.3888 21.0107L41.949 20.9782V20.4942V18.5377C41.9478 18.5061 41.9478 18.5061 41.9471 18.491C41.9355 18.2097 41.9833 17.8425 42.1366 17.5018C42.3956 16.9265 42.8734 16.6089 43.7391 16.6089C44.6109 16.6089 45.0979 16.9219 45.3662 17.4841C45.5274 17.8217 45.5793 18.1833 45.5706 18.4501C45.5703 18.4585 45.5703 18.4585 45.5704 18.4554L45.6164 20.224L45.631 20.7647L46.2571 20.7284Z" fill="#333333"/>
<path fill-rule="evenodd" clip-rule="evenodd" d="M46.8171 20.1999L46.7704 18.4708C46.7755 18.3451 46.768 18.1727 46.7395 17.9743C46.6963 17.6734 46.6127 17.3746 46.4769 17.0901C46.0316 16.1575 45.1234 15.5736 43.7391 15.5736C42.3485 15.5736 41.4463 16.1734 41.017 17.1272C40.8896 17.4102 40.812 17.7072 40.773 18.0067C40.7469 18.208 40.741 18.3855 40.7468 18.5276C40.7483 18.5594 40.7483 18.5594 40.7493 18.5719L40.7479 20.4942L39.9138 20.4134L40.0556 18.6185C40.0547 18.5903 40.0586 18.1338 40.1012 17.8399C40.1654 17.3975 40.1872 16.9315 40.3819 16.5296C40.976 15.3034 41.7956 14.7896 43.7092 14.7896C45.6286 14.7896 46.5164 15.3141 47.1638 16.5479C47.5529 17.2896 47.7254 17.9661 47.719 18.4933C47.7189 18.4955 47.7188 20.0575 47.7188 20.0575L46.8171 20.1999Z" fill="#999999"/>
<path fill-rule="evenodd" clip-rule="evenodd" d="M37.1832 23.6756C37.1832 27.1705 39.5529 29.0635 43.6699 29.0635C47.8006 29.0635 50.4418 27.0603 50.4418 23.6756C50.4418 20.2814 47.854 18.128 43.9693 18.124C39.9752 18.1199 37.1832 20.2492 37.1832 23.6756Z" fill="#333333"/>
<path fill-rule="evenodd" clip-rule="evenodd" d="M38.7224 23.6705C38.7224 21.0221 40.807 19.4323 43.9582 19.4355C46.9884 19.4386 48.9027 21.0315 48.9027 23.6705C48.9027 26.2786 46.96 27.752 43.6788 27.752C40.4219 27.752 38.7224 26.3944 38.7224 23.6705Z" fill="#999999"/>
<path fill-rule="evenodd" clip-rule="evenodd" d="M41.3958 22.735C41.3958 21.6187 42.5848 20.7328 43.8468 20.7328C45.1277 20.7328 46.1247 21.6421 46.1247 22.735C46.1247 23.5399 45.3841 23.8547 45.4109 24.1796C45.4147 24.2253 45.4511 24.3298 45.4549 24.376C45.5183 25.1572 45.5234 25.3013 45.4109 25.5875C45.2632 25.9636 44.935 26.2482 44.5013 26.3679C44.3565 26.4078 44.2212 26.4249 44.0826 26.4294C44.0118 26.4317 43.9697 26.4309 43.8815 26.4279C43.8503 26.4269 43.8493 26.4269 43.8463 26.4269C43.8408 26.4269 43.8352 26.427 43.7901 26.428C43.6859 26.4304 43.6208 26.4308 43.5362 26.4278C43.329 26.4207 43.1398 26.3954 42.9393 26.3297C42.5529 26.2032 42.2284 25.95 42.0886 25.5636C41.988 25.2856 42.0204 24.9455 42.0886 24.1796C42.0927 24.1342 41.3958 23.5634 41.3958 22.735Z" fill="#333333"/>
<path fill-rule="evenodd" clip-rule="evenodd" d="M43.2351 25.2554C43.297 25.4264 43.6682 25.3916 43.8467 25.3916C44.0252 25.3916 44.2046 25.4305 44.2734 25.2554C44.3518 25.0557 44.151 23.6449 44.2225 23.6182C44.615 23.472 44.9236 23.127 44.9236 22.735C44.9236 22.2089 44.4571 21.7681 43.8467 21.7681C43.2363 21.7681 42.5967 22.2089 42.5967 22.735C42.5967 23.1402 42.8901 23.4863 43.3037 23.624C43.3701 23.6462 43.1633 25.0568 43.2351 25.2554Z" fill="white"/>
</g>
<defs>
<clipPath id="clip0_6_8064">
<rect width="60.051" height="44" fill="white" transform="translate(0.561035 0.0411224)"/>
</clipPath>
</defs>
</svg>
