<svg xmlns:xlink="http://www.w3.org/1999/xlink" xmlns="http://www.w3.org/2000/svg" aria-hidden="true" class="css-oj2yui-StyledIcon" width="24"  height="24" ><defs><symbol id="flowui-icon-proctor" viewBox="0 0 24 24"><title>lg-proctor</title><g stroke="none" stroke-width="1" fill-rule="evenodd"><path d="M10.25,12.1924041 C11.0427968,12.4112154 11.625,13.1376173 11.625,14 C11.625,15.0355339 10.7855339,15.875 9.75,15.875 C8.71446609,15.875 7.875,15.0355339 7.875,14 C7.875,13.3321101 8.22420805,12.7457821 8.75,12.4136402 L8.75,8.5 C8.75,8.08578644 9.08578644,7.75 9.5,7.75 C9.91421356,7.75 10.25,8.08578644 10.25,8.5 L10.25,12.1924041 Z" transform="translate(-53.000000, -222.000000) translate(55.250000, 222.000000)"></path><path d="M16.3869068,6.85753802 C18.3019548,8.63784535 19.5,11.1790135 19.5,14 C19.5,19.3847763 15.1347763,23.75 9.75,23.75 C4.36522369,23.75 0,19.3847763 0,14 C0,11.1059086 1.26094355,8.50632642 3.26341269,6.7206713 L2.68408927,6.00526645 C2.23736215,6.36701895 1.50660821,6.29625465 1.10690954,5.80266791 C0.704424256,5.30563997 0.782904696,4.58526836 1.27597641,4.18598676 L2.17155935,3.460758 C2.66873122,3.05815616 3.38836445,3.13792582 3.78806311,3.63151256 C4.1905484,4.1285405 4.11199536,4.8489709 3.6188341,5.24832502 L3.56809755,5.28941067 L4.15495937,6.01412466 C5.49943802,5.07041639 7.09309179,4.45761118 8.81762699,4.29400272 L8.81762699,2.6172681 L7.80978553,2.25712211 C7.55215209,2.16505837 7.34329892,1.86726244 7.34329892,1.58563324 L7.34329892,0.509919673 C7.34329892,0.23113035 7.5634013,0.00512695014 7.84909865,0.00512695014 L11.4009016,0.00512695014 C11.680247,0.00512695014 11.9067013,0.228290473 11.9067013,0.509919673 L11.9067013,1.58563324 C11.9067013,1.86442256 11.7072365,2.17274505 11.4458286,2.28062807 L10.6301269,2.6172681 L10.6301269,4.2891872 C12.4459989,4.45165475 14.1185196,5.11196508 15.5102162,6.1326456 L16.1930544,5.28941067 L16.1423178,5.24832502 C15.6491566,4.8489709 15.5706035,4.1285405 15.9730888,3.63151256 C16.3727875,3.13792582 17.0924207,3.05815616 17.5895926,3.460758 L18.4851755,4.18598676 C18.9782472,4.58526836 19.0567277,5.30563997 18.6542424,5.80266791 C18.2545437,6.29625465 17.5237898,6.36701895 17.0770627,6.00526645 L16.3869068,6.85753802 Z M9.75,22.25 C5.19365081,22.25 1.5,18.5563492 1.5,14 C1.5,9.44365081 5.19365081,5.75 9.75,5.75 C14.3063492,5.75 18,9.44365081 18,14 C18,18.5563492 14.3063492,22.25 9.75,22.25 Z" transform="translate(-53.000000, -222.000000) translate(55.250000, 222.000000)"></path></g></symbol></defs><use xlink:href="#flowui-icon-proctor" fill="#FFFFFF"></use></svg>