<svg width="167" height="37" viewBox="0 0 167 37" fill="none" xmlns="http://www.w3.org/2000/svg">
    <rect width="37" height="37" rx="6" fill="#66890E" />
    <path fill-rule="evenodd" clip-rule="evenodd"
        d="M14.472 22.758C13.2546 25.2781 12.3733 27.6352 11.6265 29.4074C11.2976 30.188 10.8437 30.4404 10.3424 29.4074C9.9245 28.5464 7.77506 22.0181 4.90432 18.5258C4.69064 18.2659 3.89024 17.2895 5.30283 17.8485C9.75072 19.6085 10.6385 24.5135 10.7079 24.0038C13.3657 14.2606 15.2693 13.3638 16.0223 11.4266C16.7753 9.48944 16.2514 8.99534 15.6871 8.75603C15.1229 8.51672 13.9813 8.62841 14.9046 7.76247C15.8278 6.89653 17.3447 7.35853 17.8477 7.35853C18.3507 7.35853 18.7498 7.74251 19.7323 7.13383C21.2958 6.04998 23.7391 5.41187 24.6668 5.41187C25.5944 5.41187 25.9822 5.51374 26.7067 5.94487C27.4312 6.376 27.695 6.4129 28.1228 7.35853C28.6779 7.50477 29.1339 7.80872 28.9696 8.21767C28.8053 8.62662 28.5839 8.54704 27.7429 8.54704C26.9019 8.54704 26.248 9.17278 25.7399 9.08841C25.4996 9.38723 24.9369 9.48944 24.9369 9.48944C24.8189 11.683 24.0913 12.5612 23.7516 13.0146C23.412 13.468 23.0542 13.2651 23.1694 12.8339C23.2847 12.4028 23.3025 11.8175 23.3025 11.8175C23.3025 11.8175 21.9629 13.3912 22.2454 12.2618C19.2649 14.7343 17.1175 17.7888 15.4907 20.7714C17.6441 22.3926 18.1045 24.6665 18.169 24.334C20.3125 18.9701 21.1664 18.7815 21.7918 17.3622C22.4172 15.943 22.0719 15.5429 21.6857 15.3326C21.2995 15.1223 20.4892 15.1456 21.1824 14.5425C21.8756 13.9393 22.9226 14.3681 23.2773 14.3949C23.6319 14.4217 23.8946 14.7322 24.617 14.3259C25.7723 13.5927 27.5261 13.2421 28.1802 13.2915C28.8343 13.3409 29.1028 13.4383 29.5925 13.8017C30.0823 14.165 30.2666 14.2069 30.522 14.942C30.9063 15.0817 31.213 15.335 31.0772 15.6343C30.9414 15.9336 30.7892 15.8619 30.1962 15.8171C29.6032 15.7723 29.1117 16.2089 28.7575 16.1182C28.5735 16.3306 28.1718 16.3776 28.1718 16.3776C27.9816 18.0238 27.4257 18.6466 27.1641 18.9701C26.9026 19.2935 26.6602 19.1216 26.7624 18.8029C26.8647 18.4843 26.9058 18.0443 26.9058 18.0443C26.9058 18.0443 25.8846 19.1585 26.1389 18.3228C21.4993 21.8802 19.497 27.0425 18.0153 30.1734C17.7453 30.7439 17.413 30.9098 17.1099 30.105C16.8889 29.5182 15.9455 25.5949 14.472 22.758Z"
        fill="white" />
    <path fill-rule="evenodd" clip-rule="evenodd"
        d="M62.762 27.9458H66.6156L72.0628 8.11774H67.2531L65.4277 15.6155C64.8771 17.8414 64.5874 19.8037 64.4135 21.2095C64.0948 19.8037 63.7761 17.7828 63.1387 15.6448L60.8787 8.11774H56.9961L54.794 15.5862C54.2725 17.3728 53.8089 19.6573 53.4901 21.0924C53.2583 19.6573 52.8527 17.3142 52.4181 15.5569L50.5637 8.11774H45.8119L51.2591 27.9458H55.1127L57.8653 18.9836C58.2999 17.5192 58.7056 15.1762 58.8794 14.3854C59.0822 15.1469 59.4299 17.1971 59.9515 18.8958L62.762 27.9458ZM73.8593 27.9458H78.6401V8.11774H73.8593V27.9458ZM88.1727 7.85415C84.7247 7.85415 81.6534 10.0508 81.6534 13.536C81.6534 16.6992 83.6237 18.31 86.9847 19.7158C88.6942 20.4188 89.7083 20.9752 89.7083 22.3811C89.7083 23.7869 88.984 24.5777 87.3614 24.5777C85.8257 24.5777 83.1891 22.9375 82.6385 22.5568L81.0739 26.0128C82.4647 26.8622 84.9565 28.1215 87.9699 28.1215C92.2001 28.1215 94.8658 25.2513 94.8658 21.6489C94.8658 18.6615 93.3591 17.2556 90.2588 15.9377C87.796 14.8833 86.8978 14.1511 86.8109 12.8624C86.8109 12.0131 87.4773 11.3687 88.8101 11.3687C90.2878 11.3687 92.1132 12.4817 93.0114 12.9796L94.6919 9.75788C93.3881 8.84995 90.9542 7.85415 88.1727 7.85415ZM97.4735 27.9458H110.367V24.4019H102.254V19.3937H108.107L108.658 15.9084H102.254V11.6616H109.962V8.11774H97.4735V27.9458ZM122.334 8.64493C121.406 7.59056 120.276 6.79978 118.161 6.79978C115.148 6.79978 113.004 8.4692 113.004 11.3394C113.004 12.0424 113.149 12.6574 113.381 13.2432H111.149V16.7577H113.381V27.5358C113.381 29.0002 112.279 30.0838 110.454 31.0504L112.54 34.4771C114.974 33.3055 117.959 31.929 117.959 27.4479V16.7577H120.537L121.117 13.2432H117.408C117.321 12.8331 117.292 12.4231 117.292 12.0131C117.292 10.9001 118.016 10.2558 118.886 10.2558C119.465 10.2558 119.929 10.6951 120.132 10.988L122.334 8.64493ZM126.709 28.063C128.389 28.063 129.896 27.5651 130.476 27.3015L130.041 24.4019C129.606 24.4898 129.027 24.5777 128.621 24.5777C127.752 24.5777 127.462 24.2555 127.462 23.3183V6.71191L122.884 7.50269V24.3141C122.884 26.3935 124.043 28.063 126.709 28.063ZM131.026 20.7702C131.026 25.3977 133.025 28.2387 137.661 28.2387C142.239 28.2387 144.499 24.8706 144.499 20.448C144.499 15.7619 142.5 12.9503 137.893 12.9503C133.286 12.9503 131.026 16.3184 131.026 20.7702ZM137.632 16.4356C139.284 16.4356 139.66 18.3393 139.66 20.7409C139.66 22.9375 139.342 24.7534 137.922 24.7534C136.27 24.7534 135.894 22.8204 135.894 20.448C135.894 18.1929 136.212 16.4356 137.632 16.4356ZM161.652 13.2432C161.739 14.0047 161.971 15.2348 161.971 17.1971C161.971 21.2095 161.797 24.8413 160.088 24.8413C159.334 24.8413 158.929 23.904 158.929 22.7911C158.929 21.356 158.986 13.2725 158.986 13.2432H154.408V19.0422C154.408 23.1133 153.829 24.8413 152.554 24.8413C151.801 24.8413 151.395 23.904 151.395 22.7911V13.2432H146.817V22.9083C146.817 26.0714 147.947 28.1215 151.221 28.1215C153.134 28.1215 154.466 27.7115 155.51 26.1885C156.263 27.4479 157.422 28.1215 158.986 28.1215C164.26 28.1215 166.549 25.0756 166.549 16.9628C166.549 15.4398 166.346 13.8582 166.23 13.2432H161.652Z"
        fill="white" />
</svg>