<svg xmlns="http://www.w3.org/2000/svg" xmlns:xlink="http://www.w3.org/1999/xlink" width="200" height="43" viewBox="0 0 200 43" version="1.1">
    <!-- Generator: Sketch 46.2 (44496) - http://www.bohemiancoding.com/sketch -->
    <title>wiseflow_logo_mono@2x</title>
    <desc>Created with Sketch.</desc>
    <defs>
        <path d="M0,2.92307102 C0,1.30868355 1.31185488,0 2.92306006,0 L39.3613251,0 C40.9756735,0 42.2843962,1.3118537 42.2843962,2.92307102 L42.2843962,39.3613212 C42.2843962,40.9756825 40.9725425,42.284381 39.3613251,42.284381 L2.92306006,42.284381 C1.30869843,42.284381 0,40.972526 0,39.3613212 L0,2.92307102 Z" id="path-1"/>
        <path d="M12.5876979,21.3150728 C11.0965665,24.3688439 10.0170924,27.224974 9.10234068,29.372541 C8.6994346,30.3184502 8.14349261,30.624201 7.52943909,29.372541 C7.01758563,28.3291987 4.38480613,20.4185123 0.868530201,16.1867342 C0.606805231,15.8717508 -0.373585751,14.6885776 1.35665453,15.3659089 C6.80473571,17.4986505 7.89217042,23.4422922 7.97712253,22.8246498 C11.2325502,11.0183696 13.5643066,9.93165108 14.4866276,7.58425132 C15.4089524,5.23685548 14.7671542,4.63812042 14.0760348,4.3481381 C13.3849194,4.05815968 11.9866068,4.19349364 13.117492,3.1441868 C14.2483773,2.09487996 16.1063064,2.65471614 16.7224655,2.65471614 C17.3386247,2.65471614 17.8274182,3.12001149 19.0308294,2.38242792 C20.9458916,1.06907525 23.9386198,0.295837315 25.0749061,0.295837315 C26.2111923,0.295837315 26.6862095,0.419285178 27.5735766,0.941709712 C28.4609437,1.46413425 28.7841461,1.50884114 29.3080578,2.65471614 C29.9879682,2.83191951 30.5465872,3.20023578 30.3453416,3.69578451 C30.1440999,4.19132933 29.8728919,4.09489425 28.8427664,4.09489425 C27.812637,4.09489425 27.0117131,4.85313856 26.3893428,4.75089937 C26.0950397,5.11300058 25.4058107,5.23685548 25.4058107,5.23685548 C25.261295,7.89489831 24.3700141,8.95906179 23.9540165,9.50849911 C23.5380228,10.0579364 23.0997441,9.81198391 23.2408822,9.28955938 C23.3820242,8.76713484 23.4038708,8.05788299 23.4038708,8.05788299 C23.4038708,8.05788299 21.7630655,9.964875 22.1091124,8.59629133 C18.4582853,11.5923031 15.8280928,15.2936843 13.8354246,18.9077964 C16.4731315,20.8723521 17.0369754,23.6277262 17.1159747,23.2248319 C20.0594755,15.4975991 21.0323779,15.8906073 21.7984263,14.1708653 C22.5644786,12.4511194 22.1414792,11.9662787 21.6684777,11.7114263 C21.19548,11.4565739 20.2028836,11.4848625 21.0519859,10.7539754 C21.9010882,10.0230922 23.183483,10.5426949 23.6179222,10.5751517 C24.0523654,10.6076086 24.3740649,10.9838698 25.2589389,10.4916321 C26.6739711,9.60314169 28.8222152,9.17829897 29.6233935,9.23815212 C30.4245679,9.29800919 30.7534099,9.41602867 31.3533191,9.85632292 C31.9532283,10.2966133 32.1789075,10.347316 32.4918128,11.2381194 C32.96247,11.4074249 33.3381832,11.7143107 33.1718562,12.0770107 C33.0055292,12.4397147 32.8190619,12.3527822 32.0927343,12.2985179 C31.3664107,12.2442536 30.7643098,12.7732611 30.3305241,12.6634566 C30.1051658,12.9207316 29.6130964,12.9777238 29.6130964,12.9777238 C29.3801454,14.9724545 28.6992488,15.727153 28.3788487,16.1191396 C28.0584486,16.5111263 27.7615507,16.3027616 27.8868262,15.9166455 C28.0121018,15.5305295 28.0624719,14.9973891 28.0624719,14.9973891 C28.0624719,14.9973891 26.8115438,16.3475233 27.1230126,15.3347788 C21.4401175,19.6454622 18.7426553,26.5068731 16.927805,30.3006699 C16.5970843,30.9920163 16.1900257,31.1930545 15.818778,30.2178156 C15.5481101,29.5067947 14.3924585,24.7527448 12.5876979,21.3150728 Z" id="path-3"/>
        <path d="M20.9063744,25.8136833 L25.5751787,25.8136833 L32.1747198,2.0483649 L26.3474812,2.0483649 L24.1359321,11.0349561 C23.4689488,13.7028499 23.1179236,16.0548092 22.9072849,17.739797 C22.5211532,16.0548092 22.1349824,13.6326409 21.362719,11.0700586 L18.6246123,2.0483649 L13.9207016,2.0483649 L11.2528078,10.9998536 C10.620931,13.1411899 10.0592671,15.8792887 9.6731354,17.599379 C9.39228387,15.8792887 8.90083285,13.0709809 8.37427538,10.9647471 L6.12761976,2.0483649 L0.370594072,2.0483649 L6.97013519,25.8136833 L11.6389395,25.8136833 L14.9738165,15.0718993 C15.500374,13.3167064 15.991825,10.5083986 16.2024636,9.56059519 C16.4481696,10.4732961 16.8694077,12.9305669 17.5012845,14.9665878 L20.9063744,25.8136833 Z M34.3511626,25.8136833 L40.1432947,25.8136833 L40.1432947,2.0483649 L34.3511626,2.0483649 L34.3511626,25.8136833 Z M51.6924525,1.73243042 C47.5150992,1.73243042 43.7940905,4.36522167 43.7940905,8.54258278 C43.7940905,12.3338004 46.1811328,14.2645138 50.2532059,15.9494977 C52.3243293,16.7919896 53.5529764,17.458965 53.5529764,19.1439489 C53.5529764,20.8289367 52.6753545,21.7767401 50.7095504,21.7767401 C48.8490265,21.7767401 45.6545753,19.8109243 44.9876312,19.3545719 L43.0920008,23.4968305 C44.7769926,24.5148429 47.7959116,26.0243063 51.4467465,26.0243063 C56.5718954,26.0243063 59.8014531,22.5841296 59.8014531,18.2663544 C59.8014531,14.6857597 57.9760356,13.0007719 54.2199205,11.4210995 C51.2361079,10.1573577 50.1478865,9.27976323 50.0425672,7.73519336 C50.0425672,6.71718096 50.8499762,5.94489406 52.464755,5.94489406 C54.2550269,5.94489406 56.4665761,7.27884095 57.5547975,7.87560738 L59.5908145,4.01418075 C58.0111421,2.92596329 55.0624359,1.73243042 51.6924525,1.73243042 Z M62.9607979,25.8136833 L78.5820288,25.8136833 L78.5820288,21.5661172 L68.75293,21.5661172 L68.75293,15.5633542 L75.8439222,15.5633542 L76.5109054,11.3859931 L68.75293,11.3859931 L68.75293,6.29593498 L78.0905778,6.29593498 L78.0905778,2.0483649 L62.9607979,2.0483649 L62.9607979,25.8136833 Z M93.0799319,2.68023386 C91.9566041,1.41649594 90.5875312,0.468692503 88.0249568,0.468692503 C84.374161,0.468692503 81.7764801,2.46961087 81.7764801,5.90979154 C81.7764801,6.75228348 81.9520123,7.48946393 82.2328247,8.19154186 L79.5298244,8.19154186 L79.5298244,12.4040055 L82.2328247,12.4040055 L82.2328247,25.3222323 C82.2328247,27.0774252 80.8988582,28.3762656 78.6873482,29.5346959 L81.2148162,33.6418477 C84.1635223,32.237693 87.7792508,30.5878113 87.7792508,25.2169208 L87.7792508,12.4040055 L90.9034892,12.4040055 L91.6055397,8.19154186 L87.1122676,8.19154186 C87.0069483,7.70008692 86.9718419,7.2086359 86.9718419,6.71718096 C86.9718419,5.38323407 87.8494246,4.61094718 88.9025787,4.61094718 C89.6046292,4.61094718 90.1662931,5.13750464 90.4120382,5.48854556 L93.0799319,2.68023386 Z M98.380613,25.9541013 C100.41663,25.9541013 102.242048,25.3573348 102.944098,25.0414003 L102.417541,21.5661172 C101.890983,21.6714286 101.188933,21.7767401 100.697442,21.7767401 C99.6443275,21.7767401 99.2933022,21.3905967 99.2933022,20.2672728 L99.2933022,0.36338101 L93.746876,1.31118445 L93.746876,21.4608057 C93.746876,23.953179 95.1510554,25.9541013 98.380613,25.9541013 Z M111.930681,7.84050485 C117.512214,7.84050485 119.934363,11.2104766 119.934363,16.827096 C119.934363,22.1277771 117.196295,26.1647242 111.649869,26.1647242 C106.03323,26.1647242 103.611081,22.75965 103.611081,17.2132356 C103.611081,11.877448 106.349188,7.84050485 111.930681,7.84050485 Z M111.614763,12.017866 C109.894664,12.017866 109.508533,14.1240958 109.508533,16.827096 C109.508533,19.6705064 109.964877,21.9873631 111.965788,21.9873631 C113.685886,21.9873631 114.072018,19.8109243 114.072018,17.1781331 C114.072018,14.2996163 113.615673,12.017866 111.614763,12.017866 Z M140.715888,8.19154186 C140.821168,9.10424277 141.10202,10.5786076 141.10202,12.9305669 C141.10202,17.739797 140.891381,22.0926746 138.820258,22.0926746 C137.907569,22.0926746 137.416118,20.9693507 137.416118,19.6354038 C137.416118,17.9153135 137.48633,8.2266483 137.48633,8.19154186 L131.939904,8.19154186 L131.939904,15.1421082 C131.939904,20.0215473 131.237815,22.0926746 129.693249,22.0926746 C128.780559,22.0926746 128.289108,20.9693507 128.289108,19.6354038 L128.289108,8.19154186 L122.742682,8.19154186 L122.742682,19.7758179 C122.742682,23.5670355 124.111755,26.0243063 128.07847,26.0243063 C130.395338,26.0243063 132.010117,25.5328553 133.273832,23.7074535 C134.18656,25.2169208 135.5907,26.0243063 137.48633,26.0243063 C143.875233,26.0243063 146.648407,22.3735066 146.648407,12.6497349 C146.648407,10.8243331 146.402701,8.92872231 146.262275,8.19154186 L140.715888,8.19154186 Z" id="path-5"/>
    </defs>
    <g id="Page-1" stroke="none" stroke-width="1" fill="none" fill-rule="evenodd">
        <g id="uniwise" transform="translate(-1002.000000, -310.000000)">
            <g id="wiseflow_logo_mono" transform="translate(1002.000000, 310.000000)">
                <g id="Group-3">
                    <mask id="mask-2" fill="white">
                        <use href="#path-1"/>
                    </mask>
                    <g id="Clip-2"/>
                    <polygon id="Fill-1" fill="#94B144" mask="url(#mask-2)" points="-3.65665316 -3.65666646 45.9410235 -3.65666646 45.9410235 45.9410341 -3.65665316 45.9410341"/>
                </g>
                <g id="Group-6" transform="translate(3.913761, 6.262018)">
                    <mask id="mask-4" fill="white">
                        <use href="#path-3"/>
                    </mask>
                    <g id="Clip-5"/>
                    <polygon id="Fill-4" fill="#FFFFFF" mask="url(#mask-4)" points="-3.30175053 -3.36082524 36.8685722 -3.36082524 36.8685722 34.5416473 -3.30175053 34.5416473"/>
                </g>
                <g id="Group-9" transform="translate(53.227156, 7.827523)">
                    <mask id="mask-6" fill="white">
                        <use href="#path-5"/>
                    </mask>
                    <g id="Clip-8"/>
                    <polygon id="Fill-7" fill="#333333" mask="url(#mask-6)" points="-3.28603325 -3.29327371 150.305073 -3.29327371 150.305073 37.2985009 -3.28603325 37.2985009"/>
                </g>
            </g>
        </g>
    </g>
</svg>