<svg xmlns:xlink="http://www.w3.org/1999/xlink" xmlns="http://www.w3.org/2000/svg" aria-hidden="true" class="css-oj2yui-StyledIcon" width="24"  height="25" ><defs><symbol id="flowui-icon-manager" viewBox="0 0 24 25"><g stroke="none" stroke-width="1" fill-rule="evenodd"><path d="M4.01012117,13.5832623 C3.9903295,13.6117292 3.9903295,13.6117292 3.97053683,13.6401922 C3.48934381,14.3321424 2.97402373,15.0696956 2.45873726,15.8048868 C2.27841292,16.0621667 2.31085205,16.065321 2.31085205,16.065321 L14.7156699,16.0653214 C15.3544769,16.0653214 16.3426755,15.5745489 16.7181031,15.076413 C16.7497905,15.0340811 16.7497905,15.0340811 16.891239,14.8458474 C17.0291234,14.6625571 17.184543,14.4565732 17.3542141,14.2324656 C17.839003,13.5921395 18.3412178,12.9343973 18.8347465,12.2956074 C18.9540296,12.1412156 19.0827714,11.9705607 19.2194644,11.785905 C19.2987268,11.6785878 19.2987268,11.6785878 19.3779774,11.5703818 C19.6595937,11.1851259 19.9542316,10.7703265 20.2433404,10.3552583 C20.4168309,10.1061812 20.5493786,9.91315722 20.6323402,9.79119016 C20.8897726,9.42100465 20.879999,8.65393823 20.6027249,8.27375232 C20.4983672,8.12915597 20.3130918,7.87413114 20.0723908,7.54569759 C19.6712765,6.998382 19.2654066,6.451242 18.8806705,5.94178763 C18.8166136,5.85702662 18.8166136,5.85702662 18.7525285,5.77248349 C18.6090676,5.58337457 18.4717922,5.40392389 18.3415634,5.23536465 C18.1817983,5.02857568 17.9933097,4.79546728 17.7810949,4.54143481 C17.7116868,4.4583496 17.6400111,4.37335087 17.5662665,4.28664116 C17.2453403,3.90929283 16.8996552,3.51623867 16.5537463,3.1318731 C16.346267,2.90132716 16.1856513,2.72582097 16.0813434,2.61306232 C15.6216216,2.10265065 14.5254002,1.61250327 13.8318544,1.60679828 L2.24504305,1.55278724 C2.24504305,1.55278724 2.89418532,2.55957798 3.20909218,3.02713545 C3.27893021,3.13082736 3.34744007,3.23173921 3.41447129,3.32961368 C3.7097307,3.7607316 3.97052893,4.12450154 4.1843153,4.40121201 C4.4080201,4.69076021 4.65066175,5.03507416 4.91147394,5.42883713 C5.02839444,5.60535863 5.14835535,5.79092803 5.27093917,5.98455747 C5.59013688,6.48875188 5.91352166,7.02560319 6.22566161,7.56201944 C6.41294921,7.88387542 6.55566381,8.13545499 6.63744451,8.28246172 C6.91233959,8.77660552 6.88598701,9.38334894 6.56928381,9.85179796 C6.53304374,9.90540168 6.53304374,9.90540168 6.37169562,10.1433649 C6.21484742,10.3744998 6.0397255,10.6319718 5.85064845,10.9092199 C5.31027023,11.7015894 4.76607333,12.4940642 4.25241566,13.2344208 C4.12007051,13.4250693 4.12007051,13.4250693 4.01012117,13.5832623 Z M2.99731452,12.4120388 C4.17345983,10.7173746 5.32662632,9.01167752 5.32662632,9.01167752 C5.32662632,9.01167752 3.97839068,6.58812634 2.99731443,5.3182883 C2.03296073,4.07009479 0.548749895,1.6747029 0.548749895,1.6747029 C-0.0415403745,0.743544346 0.383471766,-0.0038764754 1.48743354,0.00520451836 L13.8441927,0.106849028 C14.9529037,0.115969087 16.4509094,0.782053352 17.195903,1.60919138 C17.195903,1.60919138 18.6352488,3.16204186 19.5285643,4.31828835 C20.5806787,5.68007341 21.8190351,7.39592007 21.8190351,7.39592007 C22.4698973,8.28827805 22.4852044,9.75406612 21.8638352,10.6475897 C21.8638352,10.6475897 20.8465882,12.1450662 20.0217474,13.2126837 C18.9011582,14.6630978 17.9189506,15.9752819 17.9189506,15.9752819 C17.2571339,16.8534365 15.8253578,17.5653214 14.7156699,17.5653214 L1.39510951,17.565321 C0.287803077,17.565321 -0.0894862045,16.8244864 0.544656157,15.9208178 C0.544656157,15.9208178 1.8211692,14.1067031 2.99731452,12.4120388 L2.99731452,12.4120388 Z" transform="translate(-5.000000, -112.000000) translate(6.000000, 115.369212)"></path><path d="M11.2601213,9.23197085 L10.907141,7.29968844 C10.8629898,7.05799606 10.940017,6.81000442 11.1133297,6.63585726 L12.668544,5.07315534 C12.960733,4.77955959 13.4356054,4.77841919 13.7292011,5.07060819 C14.0227969,5.36279718 14.0239373,5.83766955 13.7317483,6.1312653 L12.4854454,7.3835686 L12.7326319,8.89105236 L14.4025518,9.17788369 L15.8732877,7.76959572 C16.1771812,7.48813237 16.6517067,7.50631559 16.93317,7.81020909 C17.2146334,8.11410258 17.1964502,8.58862807 16.8925567,8.87009142 L15.1081842,10.5227607 C14.9383168,10.6800904 14.7053062,10.7501443 14.476842,10.7125718 L12.2646507,10.3487618 L9.95808245,12.6553301 C9.66518923,12.9482233 9.1903155,12.9482233 8.89742228,12.6553301 C8.60452906,12.3624369 8.60452906,11.8875631 8.89742228,11.5946699 L11.2601213,9.23197085 Z" transform="translate(-5.000000, -112.000000) translate(6.000000, 115.369212)"></path></g></symbol></defs><use xlink:href="#flowui-icon-manager" fill="#FFFFFF"></use></svg>