<svg xmlns:xlink="http://www.w3.org/1999/xlink" xmlns="http://www.w3.org/2000/svg" aria-hidden="true" class="css-oj2yui-StyledIcon" width="24"  height="24" ><defs><symbol id="flowui-icon-assessor" viewBox="0 0 24 24"><g stroke="none" stroke-width="1" fill-rule="evenodd"><path d="M17.1055259,15.6785308 C17.582009,15.3937827 18.0173892,15.2635031 18.8297904,15.0918322 C19.6101861,14.9269245 19.7313817,14.8986965 20.0288476,14.8004189 C20.6283236,14.6023624 21.0364464,14.3270968 21.36549,13.8577173 C22.2660551,12.5730644 22.4982866,11.1563606 22.4982866,8.4487803 C22.4982866,5.07252024 22.0112549,3.87797927 20.3962241,2.88411413 C19.1759735,2.13319061 17.7160088,1.98794789 12.8415026,2.00226801 C12.2757816,2.00392996 11.9858343,2.00454896 11.6384265,2.00454896 C11.5156323,2.00454414 11.5156323,2.00454414 11.3942385,2.00452969 C6.07805068,2.00389504 4.70382833,2.18577731 3.09528499,3.28528729 C2.08923999,3.97296321 1.64242052,5.13720102 1.53312184,7.09547644 C1.50534173,7.59320522 1.49965277,8.00544862 1.50004539,8.91382039 C1.50007962,8.99289121 1.50007962,8.99289121 1.50009106,9.07195373 C1.50008925,11.3887781 2.53413764,13.6717319 4.2287451,14.7261794 C4.83353421,15.1025016 5.98623478,15.4278631 7.47843142,15.6529815 C8.46236632,15.8014216 9.52749897,15.8988546 10.5942135,15.9541982 C10.9687314,15.9736291 11.3160992,15.9863617 11.6268077,15.993695 C11.8104306,15.9980289 11.9388735,15.9996074 12.0027304,15.9997601 C12.690825,16.0014058 13.2895548,16.471012 13.4550905,17.1389003 C13.5022638,17.3292309 13.719284,17.7494335 14.1977799,18.2035447 C14.649015,18.6317843 15.2391148,18.9808679 15.998941,19.2211338 C16.4682156,19.3695239 15.407853,16.6930668 17.1055259,15.6785308 Z M22.59375,14.71875 C21.2136202,16.6875 18.9687498,16.3125 17.8749998,16.9661293 C16.9558456,17.5154195 17.7456541,20.0122559 17.8862791,20.3247559 C18.0269041,20.6372559 17.9487791,21.0278809 17.4644041,21.0278809 C12.7612796,20.5747559 11.999143,17.4997559 11.999143,17.4997559 C11.999143,17.4997559 5.82319738,17.4849851 3.43627866,15.9997559 C1.04935995,14.5145266 8.91374901e-05,11.5394141 9.1056565e-05,9.07195256 C9.29756399e-05,6.60449107 -0.0507723721,3.61881516 2.24882149,2.04694181 C4.54841536,0.475068455 7.10337064,0.504548963 11.6384265,0.504548963 C16.1734824,0.504548963 19.1677363,0.366851833 21.1823703,1.60662667 C23.3289064,2.92757207 23.9982866,4.63379306 23.9982866,8.4487803 C23.9982866,10.3028499 23.9738797,12.75 22.59375,14.71875 Z" transform="translate(-5.000000, -42.000000) translate(5.000000, 44.000000)"></path><path d="M9.5130385,11.7415594 C9.77163627,12.0512977 10.0114655,12.3863982 10.2247459,12.7216244 C10.3518611,12.9214193 10.4402798,13.0740055 10.4836437,13.154773 C10.8244999,13.7896366 11.7772957,13.6253565 11.8858661,12.9130032 C11.897243,12.8383567 11.9303479,12.6763433 11.9927752,12.4395845 C12.1002128,12.0321213 12.2521481,11.574684 12.4560661,11.0797686 C13.0430243,9.65520281 13.9279297,8.22728679 15.1713371,6.89209315 C15.4526931,6.5899679 15.7501408,6.29552204 16.064148,6.00942655 C16.3703332,5.73045786 16.3923965,5.25609695 16.1134278,4.9499118 C15.8344591,4.64372665 15.3600982,4.62166335 15.053913,4.90063204 C14.709432,5.21449256 14.3828116,5.53781672 14.0736175,5.86983497 C12.7017518,7.34296956 11.721973,8.92397663 11.0691766,10.508334 C10.6730101,11.4698424 11.0989984,11.3292513 10.8782958,11.0455887 C10.8086193,10.9560356 10.7373328,10.8674755 10.6644877,10.7802245 C10.0593325,10.0553934 9.42215456,9.50747839 8.73895659,9.20966058 C8.35925145,9.04414055 7.91725912,9.21777188 7.75173908,9.59747702 C7.58621905,9.97718216 7.75985038,10.4191745 8.13955552,10.5846945 C8.57045734,10.7725321 9.04391752,11.1796647 9.5130385,11.7415594 Z" transform="translate(-5.000000, -42.000000) translate(5.000000, 44.000000)"></path></g></symbol></defs><use xlink:href="#flowui-icon-assessor" fill="#FFFFFF"></use></svg>