<svg xmlns:xlink="http://www.w3.org/1999/xlink" xmlns="http://www.w3.org/2000/svg" aria-hidden="true" class="css-oj2yui-StyledIcon" width="24"  height="24" ><defs><symbol id="flowui-icon-participant" viewBox="0 0 24 24"><g stroke="none" stroke-width="1" fill-rule="evenodd"><path d="M3.20951527,19.7104332 C5.60213056,19.7104564 6.6426837,19.252867 6.55249453,17.5492639 C6.58347797,17.0433103 6.41548027,16.6259799 6.0578566,16.1734757 C6.01525558,16.1195722 5.8305401,15.896688 5.78522054,15.8387162 C5.47238957,15.4385495 5.33286726,15.0537605 5.33286726,14.2956764 L5.33286726,13.7522445 C5.33286726,12.0662916 6.09637052,10.8279156 7.49454327,10.8279156 C9.20899796,10.83171 9.94166254,11.9110472 9.94166254,13.5314202 L9.94166254,14.0748522 C9.94166254,15.0213225 9.7372894,15.6069961 9.36836046,16.0671325 C9.30254108,16.1492239 8.74086492,16.7124864 8.61667418,16.9325144 C8.50083052,17.1377539 8.44567652,17.3637793 8.47150391,17.6055026 C8.60007509,18.8088238 9.246023,19.2073258 10.6526336,19.4869222 C11.1727394,19.5903052 11.2731094,19.6120246 11.4896081,19.6752853 C11.560349,19.6959558 11.6274943,19.7176054 11.6917529,19.74056 C12.5086096,20.0323588 12.99939,21.0149541 12.7740033,21.9029785 C12.608765,21.9837041 12.3225621,22.0549959 12.1321912,22.0985436 C11.1026584,22.3340516 9.60452394,22.478222 7.55797507,22.4782221 C5.48073374,22.4782222 3.83794083,22.4086322 2.58531635,22.2932334 C2.32784369,22.2695136 2.00724479,22.2460313 1.82162223,22.2238219 C1.82162223,21.1718144 2.44677524,19.7164374 3.20951527,19.7104332 Z M0.32400372,22.8519197 C0.32400372,23.2031617 0.567769748,23.507357 0.910571036,23.5838963 C1.15388503,23.6382224 1.65124854,23.7135338 2.44771069,23.7869083 C3.74800597,23.9066988 5.43644039,23.9782222 7.55797514,23.9782221 C9.71020085,23.978222 11.318293,23.82347 12.4666797,23.5607739 C13.2139128,23.3898427 13.660881,23.2008432 13.8858992,23.0355837 C14.0118861,22.9430554 14.1058142,22.8134746 14.1545547,22.6649534 C14.8454652,20.5596221 13.7083498,18.8680991 12.1963561,18.3279824 C12.1035166,18.2948181 12.0084809,18.2641757 11.9103148,18.2354917 C11.6335287,18.1546149 11.5164329,18.1292762 10.945072,18.0157051 C10.1199616,17.8516953 9.99832915,17.7766571 9.96301433,17.4461393 C9.97258999,17.5357596 9.95276103,17.6170202 9.92295788,17.6698222 C9.92756305,17.6616633 10.3610312,17.2269708 10.5386459,17.0054459 C11.1217112,16.2782338 11.4416625,15.361347 11.4416625,14.0748522 L11.4416625,13.5314202 C11.4416625,11.1788806 10.1892546,9.33387482 7.49620235,9.32791747 C5.07574113,9.32791563 3.83286726,11.3438143 3.83286726,13.7522445 L3.83286726,14.2956764 C3.83286726,15.3974732 4.08939677,16.1049568 4.60347166,16.7625504 C4.66561362,16.842041 4.85372745,17.0690258 4.88101763,17.1035563 C5.03105648,17.2934017 5.06382774,17.3748103 5.05459212,17.5492639 C5.07965303,18.1019442 4.83289747,18.2104564 3.2036116,18.2104564 C1.41287327,18.2245296 0.32400372,20.0335047 0.32400372,22.8519197 L0.32400372,22.8519197 Z" transform="translate(-5.000000, -5.000000) translate(5.000000, 5.000000)"></path><path d="M15.8779095,9.9002329 C16.3374607,9.46730669 16.6204301,9.04105729 16.726035,8.81396865 C16.9662725,8.29737113 17.4784327,7.96146627 18.0479735,7.94696343 C18.1627971,7.94403956 18.3874013,7.93147107 18.6826997,7.90294011 C19.1744891,7.85542471 19.6641991,7.78023462 20.1081321,7.67416839 C20.5915129,7.5586771 20.9783874,7.41506984 21.2209636,7.26412991 C21.8978446,6.84294952 22.1441814,6.20943178 22.1441804,4.9643606 C22.1441869,4.91923575 22.1441869,4.91923575 22.1442064,4.87429568 C22.1444241,4.37060938 22.1413078,4.14478719 22.1264339,3.87829517 C22.0744714,2.94729755 21.8898478,2.46624016 21.5209435,2.21407792 C20.758216,1.69272021 20.0549825,1.59964523 17.1749433,1.59998905 C17.1060054,1.59999726 17.1060054,1.59999726 17.036222,1.6 C16.8381487,1.6 16.6730533,1.59964754 16.3512405,1.59870213 C13.7289652,1.59099852 12.9469997,1.66879137 12.4035534,2.00321987 C11.7087297,2.43080371 11.5185998,2.89713476 11.5185998,4.61053767 C11.5184732,4.7237655 11.5184732,4.7237655 11.5181043,4.83059713 C11.5168477,5.19282912 11.5181842,5.33546564 11.526545,5.50444021 C11.5527046,6.03313502 11.6587637,6.47480411 11.9639818,7.17238923 C12.0391894,7.34427844 12.1461743,7.45582691 12.3006742,7.54175356 C12.49918,7.65215454 12.7242088,7.6938719 12.7986576,7.69387192 C13.5987798,7.69387206 14.2580505,8.32188162 14.2968891,9.12106065 L14.3777019,10.7839391 C14.3777019,10.7839391 15.1170374,10.6170224 15.8779095,9.9002329 Z M10.0185998,4.61053767 C10.0185998,2.44448246 10.3986572,1.47573247 11.6174073,0.725732411 C12.7612665,0.0218189823 14.4613296,0.1 17.036222,0.1 C19.6111143,0.1 21.0617546,0.0832616979 22.367407,0.97573243 C23.6730594,1.86820316 23.6441793,3.56339595 23.6441804,4.96435943 C23.6441815,6.36532292 23.3686634,7.69443 22.0134301,8.53770635 C20.6581968,9.38098271 18.0861573,9.44647735 18.0861573,9.44647735 C18.0861573,9.44647735 16.6486573,12.5376219 12.9611573,12.5376219 L12.7986573,9.19387192 C12.7986573,9.19387192 11.2111572,9.19387163 10.5897637,7.77365824 C9.96837011,6.35344484 10.0185998,5.66323246 10.0185998,4.61053767 L10.0185998,4.61053767 Z" transform="translate(-5.000000, -5.000000) translate(5.000000, 5.000000)"></path></g></symbol></defs><use xlink:href="#flowui-icon-participant" fill="#FFFFFF"></use></svg>