<svg xmlns:xlink="http://www.w3.org/1999/xlink" xmlns="http://www.w3.org/2000/svg" aria-hidden="true" class="css-oj2yui-StyledIcon" width="24"  height="24" ><defs><symbol id="flowui-icon-supporter" viewBox="0 0 24 24"><g stroke="none" stroke-width="1" fill-rule="evenodd"><path d="M11.3606839,5.20311899 C11.3604675,2.79858246 10.1175936,0.782683814 7.69879149,0.782683814 C5.00408013,0.788642999 3.75167221,2.63364882 3.75167221,4.98618843 L3.75167221,5.52962035 C3.75167221,6.81611516 4.07162354,7.73300194 4.65468886,8.46021403 C4.83230353,8.68173902 5.21791631,8.99351094 5.20682799,9.03247837 C5.14331062,9.25569586 4.95074052,9.33083958 4.24826272,9.47047327 C3.67690188,9.58404443 3.55980603,9.60938313 3.28301992,9.69025985 C3.1848539,9.71894389 3.08981819,9.74958625 2.99697863,9.78275054 C1.48498498,10.3228673 0.347869503,12.0143903 1.03878008,14.1197216 L1.08864197,14.2369581 C1.21093099,14.467798 1.46637691,14.7257148 1.88513129,14.9447579 C2.87830752,15.4642709 4.47268834,15.5957416 6.82379572,15.1808403 C7.23170642,15.108856 7.50402862,14.7198243 7.43204438,14.3119136 C7.36006013,13.9040029 6.97102841,13.6316807 6.5631177,13.7036649 C4.51099315,14.0658046 3.2408002,13.961066 2.58038332,13.6156136 C2.43375532,13.5389151 2.39629301,13.5010904 2.41413458,13.5347692 L2.46399647,13.6520057 C2.05900467,12.4179213 2.68472513,11.487127 3.50158181,11.1953282 C3.56584044,11.1723736 3.63298572,11.150724 3.70372667,11.1300535 C3.92022531,11.0667928 4.02059536,11.0450734 4.5407011,10.9416904 C5.94731175,10.662094 6.59325966,10.2635919 6.72183084,9.06027079 C6.74765823,8.81854748 6.69250423,8.59252205 6.57666057,8.38728257 C6.45246983,8.1672546 5.89079367,7.60399204 5.82497429,7.52190064 C5.45604535,7.06176423 5.25167221,6.47609068 5.25167221,5.52962035 L5.25167221,4.98618843 C5.25167221,3.36581538 5.98433679,2.28647823 7.70045057,2.28268198 C9.09696423,2.28268381 9.86046749,3.52105983 9.86046749,5.20701263 C9.86709493,5.49754911 9.82224485,6.02097993 9.67416959,6.84008205 C9.60048346,7.24768876 9.87117957,7.6378537 10.2787863,7.71153983 C10.686393,7.78522597 11.0765579,7.51452986 11.1502441,7.10692315 C11.3156742,6.19181947 11.3691264,5.56799659 11.3606839,5.20311899 Z" transform="translate(-53.000000, -147.000000) translate(53.000000, 147.000000)"></path><path d="M7.70951527,19.1652014 C10.1021306,19.1652246 11.1426837,18.7076352 11.0524945,17.0040321 C11.083478,16.4980785 10.9154803,16.0807481 10.5578566,15.6282438 C10.5152556,15.5743404 10.3305401,15.3514562 10.2852205,15.2934844 C9.97238957,14.8933177 9.83286726,14.5085286 9.83286726,13.7504446 L9.83286726,13.2070126 C9.83286726,11.5210598 10.5963705,10.2826838 11.9945433,10.2826838 C13.708998,10.2864782 14.4416625,11.3658154 14.4416625,12.9861884 L14.4416625,13.5296204 C14.4416625,14.4760907 14.2372894,15.0617642 13.8683605,15.5219006 C13.8025411,15.603992 13.2408649,16.1672546 13.1166742,16.3872826 C13.0008305,16.5925221 12.9456765,16.8185475 12.9715039,17.0602708 C13.1000751,18.2635919 13.746023,18.662094 15.1526336,18.9416904 C15.6727394,19.0450734 15.7731094,19.0667928 15.9896081,19.1300535 C16.060349,19.150724 16.1274943,19.1723736 16.1917529,19.1953282 C17.0086096,19.487127 17.5314937,20.3130498 17.4052833,21.3196325 C17.3283687,21.3911748 16.9721089,21.4755549 16.6321912,21.5533118 C15.6026584,21.7888198 14.1045239,21.9329902 12.0579751,21.9329903 C9.98073374,21.9329904 8.33794083,21.8634004 7.08531635,21.7480016 C6.83007244,21.7244871 6.32400375,21.6520056 6.32400375,21.6520056 C6.32400375,20.8034615 6.94677524,19.1712055 7.70951527,19.1652014 Z M4.82400372,22.3066878 C4.82400372,22.6579299 5.06776975,22.9621252 5.41057104,23.0386645 C5.65388503,23.0929906 6.15124854,23.168302 6.94771069,23.2416765 C8.24800597,23.361467 9.93644039,23.4329904 12.0579751,23.4329903 C14.2102008,23.4329902 15.818293,23.2782382 16.9666797,23.0155421 C17.7139128,22.8446109 18.160881,22.6556113 18.3858992,22.4903518 C18.5118861,22.3978236 18.6058142,22.2682428 18.6545547,22.1197216 C19.3454652,20.0143903 18.2083498,18.3228673 16.6963561,17.7827505 C16.6035166,17.7495863 16.5084809,17.7189439 16.4103148,17.6902598 C16.1335287,17.6093831 16.0164329,17.5840444 15.445072,17.4704733 C14.6199616,17.3064635 14.4983292,17.2314253 14.4630143,16.9009075 C14.47259,16.9905278 14.452761,17.0717884 14.4229579,17.1245904 C14.4275631,17.1164315 14.8610312,16.681739 15.0386459,16.460214 C15.6217112,15.7330019 15.9416625,14.8161152 15.9416625,13.5296204 L15.9416625,12.9861884 C15.9416625,10.6336488 14.6892546,8.788643 11.9962023,8.78268565 C9.57574113,8.78268381 8.33286726,10.7985825 8.33286726,13.2070126 L8.33286726,13.7504446 C8.33286726,14.8522413 8.58939677,15.559725 9.10347166,16.2173185 C9.16561362,16.2968092 9.35372745,16.523794 9.38101763,16.5583245 C9.53105648,16.7481699 9.56382774,16.8295784 9.55459212,17.0040321 C9.57965303,17.5567124 9.33289747,17.6652246 7.7036116,17.6652246 C5.91287327,17.6792977 4.82400372,19.4882729 4.82400372,22.3066878 L4.82400372,22.3066878 Z" transform="translate(-53.000000, -147.000000) translate(53.000000, 147.000000)"></path><path d="M14.484482,6.91065421 C14.3729234,6.63208946 14.3328673,6.32254019 14.3328673,5.20701263 C14.3328673,3.3979042 15.0461355,2.28268381 16.4945433,2.28268381 C18.208998,2.28647823 18.9416625,3.36581538 18.9416625,4.98618843 L18.9416625,5.52962035 C18.9416625,6.47609068 18.7372894,7.06176423 18.3683605,7.52190064 C18.3025411,7.60399204 17.7408649,8.1672546 17.6166742,8.38728257 C17.5008305,8.59252205 17.4456765,8.81854748 17.4715039,9.06027079 C17.6000751,10.2635919 18.246023,10.662094 19.6526336,10.9416904 C20.1727394,11.0450734 20.2731094,11.0667928 20.4896081,11.1300535 C20.560349,11.150724 20.6274943,11.1723736 20.6917529,11.1953282 C21.5086096,11.487127 22.1343301,12.4179213 21.7293383,13.6520057 L21.7803896,13.532533 C21.7505229,13.5884539 21.571655,13.7645402 21.1424855,13.9813789 C20.3712354,14.3710545 19.2089082,14.6270541 17.5779061,14.6617829 C17.1637864,14.6706007 16.8352243,15.0134593 16.8440421,15.427579 C16.85286,15.8416987 17.1957186,16.1702608 17.6098383,16.161443 C19.452744,16.1222021 20.8334619,15.8181026 21.8189252,15.3201953 C22.5252141,14.9633415 22.9291012,14.5657351 23.1035033,14.2391943 L23.1545547,14.1197216 C23.8454652,12.0143903 22.7083498,10.3228673 21.1963561,9.78275054 C21.1035166,9.74958625 21.0084809,9.71894389 20.9103148,9.69025985 C20.6335287,9.60938313 20.5164329,9.58404443 19.945072,9.47047327 C19.1199616,9.3064635 18.9565437,9.08925938 19.0066199,9.0376847 C19.1424838,8.89775524 19.4088653,8.62207931 19.5386459,8.46021403 C20.1217112,7.73300194 20.4416625,6.81611516 20.4416625,5.52962035 L20.4416625,4.98618843 C20.4416625,2.63364882 19.1892546,0.788642999 16.4962023,0.782685649 C14.041319,0.782683814 12.8328673,2.67214131 12.8328673,5.20701263 C12.8328673,6.49693724 12.8948693,6.97608192 13.0919958,7.46831195 C13.1353983,7.5749762 13.1514256,7.61517311 13.1688156,7.66386525 C13.3081307,8.05394752 13.7372921,8.25723448 14.1273744,8.11791939 C14.5174566,7.97860429 14.7207436,7.54944293 14.5814285,7.15936065 C14.5533288,7.08068156 14.5256545,7.01127355 14.484482,6.91065421 Z" transform="translate(-53.000000, -147.000000) translate(53.000000, 147.000000)"></path></g></symbol></defs><use xlink:href="#flowui-icon-supporter" fill="#FFFFFF"></use></svg>